<svg xmlns="http://www.w3.org/2000/svg" xmlns:xlink="http://www.w3.org/1999/xlink" width="500" zoomAndPan="magnify" viewBox="0 0 375 374.999991" height="500" preserveAspectRatio="xMidYMid meet" version="1.0"><defs><clipPath id="3f85a27623"><path d="M 72 47.828125 L 302.921875 47.828125 L 302.921875 326.828125 L 72 326.828125 Z M 72 47.828125 " clip-rule="nonzero"/></clipPath></defs><rect x="-37.5" width="450" fill="#ffffff" y="-37.499999" height="449.999989" fill-opacity="1"/><rect x="-37.5" width="450" fill="#ffffff" y="-37.499999" height="449.999989" fill-opacity="1"/><g clip-path="url(#3f85a27623)"><path fill="#290033" d="M 300.578125 119.730469 C 299.648438 118.175781 298.089844 117.210938 296.347656 116.804688 C 294.824219 116.496094 293.363281 116.214844 291.804688 116.214844 C 292.707031 113.539062 293.050781 110.832031 293.640625 108.0625 C 294.386719 103.519531 295.226562 98.976562 294.792969 94.40625 C 294.605469 90.515625 294.324219 85.878906 292.492188 82.363281 C 290.59375 78.941406 287.699219 75.675781 284.089844 73.960938 C 281.789062 73.027344 279.265625 72.53125 276.808594 72.34375 C 279.082031 68.050781 280.136719 62.980469 278.738281 58.21875 C 277.960938 55.355469 276.1875 52.710938 273.820312 50.9375 C 271.457031 49.257812 268.90625 48.945312 266.136719 48.542969 C 262.402344 48.074219 258.730469 48.230469 254.96875 48.074219 C 252.789062 48.074219 250.609375 47.828125 248.433594 48.042969 C 244.824219 48.292969 240.59375 48.355469 237.261719 49.847656 C 235.273438 50.75 233.21875 52.152344 232.160156 54.113281 C 230.792969 56.539062 229.859375 59.183594 229.578125 61.984375 C 229.390625 64.535156 229.484375 67.054688 230.449219 69.449219 C 228.148438 69.265625 225.84375 69.234375 223.542969 69.265625 C 221.769531 69.390625 220.027344 69.730469 218.285156 69.980469 C 215.421875 70.539062 212.777344 70.851562 210.164062 72.21875 C 206.894531 73.808594 204.3125 76.515625 202.757812 79.78125 C 200.984375 83.484375 199.832031 87.714844 198.835938 91.699219 C 197.90625 95.617188 196.722656 99.414062 195.945312 103.363281 C 195.539062 105.355469 195.167969 107.378906 194.855469 109.402344 C 193.175781 108.777344 191.527344 108.46875 189.753906 108.46875 C 185.148438 108.375 180.511719 108.4375 175.90625 108.5625 C 168.441406 108.964844 161.003906 109.308594 153.535156 109.589844 C 151.421875 109.742188 148.929688 109.679688 146.972656 110.492188 C 146.007812 110.863281 145.320312 111.578125 144.480469 112.109375 C 141.277344 112.265625 138.042969 112.480469 134.835938 112.792969 C 133.15625 112.949219 131.007812 112.886719 129.640625 114.007812 C 128.519531 114.910156 128.304688 116.308594 128.210938 117.644531 C 128.117188 119.417969 127.992188 121.378906 128.488281 123.089844 C 128.738281 123.898438 129.265625 124.617188 130.105469 124.832031 C 132.78125 125.488281 135.550781 125.859375 138.257812 126.328125 C 139.816406 126.605469 141.371094 126.855469 142.925781 126.886719 C 146.253906 126.949219 149.554688 127.105469 152.882812 127.011719 C 156.925781 126.949219 160.972656 127.042969 165.015625 127.011719 C 168.191406 126.886719 171.363281 126.699219 174.539062 126.730469 C 174.816406 135.503906 175.9375 144.1875 176.40625 152.960938 C 172.671875 152.992188 168.9375 153.425781 165.265625 153.988281 C 159.945312 154.703125 154.65625 155.699219 149.429688 156.882812 C 145.851562 157.660156 142.304688 158.714844 138.851562 159.929688 C 135.832031 161.082031 132.96875 161.984375 130.292969 163.820312 C 129.050781 164.628906 128.054688 165.78125 127.277344 167.023438 C 126.777344 167.988281 126.589844 169.109375 126.375 170.136719 C 125.71875 173.867188 125.71875 177.757812 126.03125 181.523438 C 126.375 184.914062 127.429688 188.804688 129.890625 191.261719 C 131.195312 192.628906 132.90625 193.378906 134.773438 193.625 C 134.183594 196.800781 134.867188 200.003906 136.390625 202.804688 C 137.449219 204.578125 138.726562 206.164062 140.5625 207.191406 C 138.226562 216.835938 135.832031 226.453125 133.53125 236.097656 C 132.191406 241.695312 130.855469 247.296875 129.671875 252.929688 C 129.296875 254.703125 128.988281 256.507812 128.738281 258.28125 C 127.027344 258.933594 125.410156 259.804688 123.761719 260.519531 C 118.6875 262.886719 113.617188 265.21875 108.609375 267.738281 C 106.925781 268.578125 105.277344 269.449219 103.691406 270.445312 C 102.386719 269.917969 101.203125 269.296875 99.800781 269.046875 C 97.28125 268.609375 94.761719 268.363281 92.242188 267.800781 C 89.660156 267.210938 87.046875 266.960938 84.433594 266.589844 C 81.632812 266.308594 78.863281 266.246094 76.5 268.019531 C 74.382812 269.480469 73.574219 271.691406 72.980469 274.085938 C 72.515625 275.828125 72.421875 277.601562 72.203125 279.375 C 71.988281 281.304688 72.609375 283.328125 73.480469 285.007812 C 74.414062 286.40625 75.535156 287.777344 76.933594 288.742188 C 78.054688 289.519531 79.113281 290.296875 80.324219 290.949219 C 83.53125 292.597656 86.734375 294.0625 90.1875 295.121094 C 97.125 297.421875 104.40625 298.851562 111.5 300.625 C 120.335938 302.898438 129.234375 305.167969 138.257812 306.601562 C 139.285156 306.820312 140.3125 307.003906 141.402344 307.003906 C 142.988281 308.964844 144.824219 310.675781 146.878906 312.109375 C 151.730469 315.5625 157.488281 318.019531 163.117188 319.917969 C 175.9375 324.148438 189.847656 326.015625 203.285156 326.667969 C 215.109375 327.167969 227.027344 326.636719 238.726562 324.832031 C 246.410156 323.621094 254.15625 321.878906 261.4375 319.140625 C 266.355469 317.273438 271.425781 314.816406 275.472656 311.359375 C 278.269531 308.902344 280.730469 305.855469 281.320312 302.058594 C 281.539062 299.785156 281.910156 297.765625 281.039062 295.554688 C 279.734375 292.164062 276.871094 289.207031 274.070312 287 C 268.9375 282.953125 262.871094 279.90625 256.773438 277.570312 C 250.238281 275.113281 243.269531 273.246094 236.296875 272.78125 C 235.425781 272.6875 234.277344 272.84375 233.46875 272.65625 C 232.128906 263.570312 232.160156 254.515625 230.574219 245.398438 C 229.921875 241.636719 229.609375 238.089844 228.332031 234.449219 C 227.710938 232.644531 226.933594 230.433594 225.410156 229.1875 C 224.289062 228.226562 222.703125 228.039062 221.300781 227.882812 C 222.046875 225.363281 222.859375 222.84375 223.355469 220.257812 C 225.410156 219.542969 226.902344 218.175781 228.363281 216.621094 C 230.699219 214.191406 232.285156 211.328125 233.1875 208.0625 C 238.257812 211.113281 244.824219 211.984375 250.609375 212.046875 C 257.519531 212.171875 264.457031 211.207031 271.085938 209.214844 C 274.257812 208.21875 277.523438 206.941406 280.355469 205.136719 C 281.445312 204.453125 282.660156 203.925781 283.621094 203.117188 C 285.335938 201.558594 286.984375 200.066406 288.226562 198.105469 C 291.152344 193.875 292.769531 188.835938 293.890625 183.855469 C 294.699219 180.683594 295.226562 177.445312 295.320312 174.148438 C 295.507812 170.632812 295.601562 167.085938 295.570312 163.570312 C 295.195312 154.609375 295.945312 144.683594 294.417969 135.785156 L 294.480469 135.597656 C 296.191406 134.695312 297.902344 134.449219 299.273438 132.890625 C 302.230469 129.375 303.007812 123.898438 300.578125 119.730469 Z M 196.007812 201.03125 C 197.25 200.6875 198.339844 200.84375 199.085938 199.601562 C 200.859375 199.664062 202.695312 200.160156 204.46875 200.441406 C 204.46875 204.234375 204.8125 208.0625 204.8125 211.859375 C 193.207031 210.148438 181.570312 208.4375 169.964844 206.789062 C 178.675781 204.953125 187.324219 202.992188 196.007812 201.03125 Z M 148.808594 195.429688 C 149.335938 195.027344 149.679688 194.527344 150.394531 194.683594 C 152.695312 194.933594 154.96875 195.367188 157.269531 195.585938 C 164.707031 196.332031 172.296875 197.265625 179.765625 197.515625 C 171.925781 200.035156 163.773438 202.027344 156.023438 204.859375 C 154.4375 204.703125 152.851562 204.453125 151.296875 204.265625 C 150.457031 203.210938 149.179688 202.898438 148.464844 201.746094 C 147.90625 200.90625 147.34375 199.941406 147.1875 198.914062 C 147.003906 197.609375 147.84375 196.269531 148.808594 195.429688 Z M 214.457031 209.679688 C 214.394531 207.285156 214.207031 204.859375 214.113281 202.460938 C 216.664062 202.710938 219 203.085938 221.488281 202.214844 C 221.394531 203.894531 221.425781 205.542969 220.898438 207.160156 C 218.71875 207.9375 216.605469 208.839844 214.457031 209.679688 Z M 214.457031 209.679688 " fill-opacity="1" fill-rule="nonzero"/></g><path fill="#523a2c" d="M 224.691406 102.277344 C 223.105469 108.40625 221.644531 114.566406 220.429688 120.820312 C 222.980469 121.070312 225.503906 121.253906 228.023438 121.722656 C 227.152344 126.296875 226.15625 130.839844 225.503906 135.445312 C 224.753906 140.296875 224.007812 145.183594 223.511719 150.066406 C 223.355469 151.28125 223.230469 152.492188 223.355469 153.738281 C 224.132812 149.476562 224.691406 145.214844 225.566406 140.980469 C 227.742188 130.214844 229.796875 119.390625 232.285156 108.65625 C 233.996094 101.839844 235.675781 95.089844 237.730469 88.367188 C 239.128906 83.609375 240.625 78.941406 242.769531 74.460938 C 242.273438 74.460938 241.804688 74.460938 241.308594 74.492188 C 238.757812 74.523438 236.144531 74.429688 233.59375 74.554688 C 232.128906 77.726562 230.761719 81.027344 229.796875 84.386719 C 227.898438 90.328125 226.25 96.300781 224.691406 102.277344 Z M 224.691406 102.277344 " fill-opacity="1" fill-rule="nonzero"/><path fill="#523a2c" d="M 245.257812 74.585938 C 244.980469 76.015625 244.234375 77.167969 243.734375 78.503906 C 241.929688 82.644531 240.777344 87.09375 239.441406 91.386719 C 238.414062 94.871094 237.480469 98.355469 236.546875 101.839844 C 234.898438 108.1875 233.4375 114.535156 232.097656 120.945312 C 232.035156 121.378906 232.003906 121.785156 232.003906 122.1875 C 234.773438 122.15625 237.480469 122.5 240.25 121.972656 C 242.988281 108.375 246.410156 94.839844 250.703125 81.648438 C 251.480469 79.34375 252.507812 77.105469 253.441406 74.863281 C 253.039062 74.773438 252.664062 74.710938 252.261719 74.617188 C 252.042969 74.832031 251.855469 75.050781 251.667969 75.300781 C 251.699219 75.113281 251.730469 74.925781 251.761719 74.710938 C 249.554688 74.585938 247.40625 74.554688 245.257812 74.585938 Z M 245.257812 74.585938 " fill-opacity="1" fill-rule="nonzero"/><path fill="#523a2c" d="M 228.085938 172.4375 C 232.503906 171.660156 236.921875 170.945312 241.308594 170.042969 C 243.050781 169.699219 244.792969 169.328125 246.535156 169.015625 C 249.769531 168.457031 252.976562 167.675781 256.179688 167.023438 C 257.457031 166.742188 258.667969 166.558594 259.851562 166.121094 C 256.742188 165.75 253.660156 165.34375 250.550781 164.9375 C 249.429688 164.785156 248.402344 164.566406 247.28125 164.816406 C 243.394531 165.75 239.503906 166.496094 235.613281 167.460938 C 231.847656 168.363281 228.117188 169.417969 224.382812 170.445312 C 219.808594 171.722656 215.046875 172.96875 210.722656 174.863281 C 209.539062 175.457031 207.890625 176.078125 207.238281 177.292969 C 206.773438 178.164062 206.398438 179.191406 206.304688 180.183594 C 206.492188 180.308594 206.742188 180.371094 206.988281 180.402344 C 208.855469 180.589844 210.691406 180.808594 212.558594 180.964844 C 211.40625 185.722656 212.308594 190.703125 213.460938 195.398438 C 213.523438 193.625 213.179688 191.882812 213.117188 190.109375 C 212.933594 186.65625 213.523438 183.171875 214.890625 180 C 215.234375 179.191406 215.703125 178.441406 216.261719 177.726562 C 218.191406 175.238281 220.898438 174.210938 223.820312 173.339844 C 225.253906 173.027344 226.652344 172.65625 228.085938 172.4375 Z M 228.085938 172.4375 " fill-opacity="1" fill-rule="nonzero"/><path fill="#523a2c" d="M 236.578125 71.691406 C 236.765625 71.753906 236.984375 71.785156 237.230469 71.785156 C 243.671875 71.816406 250.113281 71.753906 256.523438 72.34375 C 258.917969 72.46875 261.34375 72.78125 263.773438 72.71875 C 262.125 70.292969 262.464844 67.304688 262.277344 64.535156 C 262.714844 66.027344 262.777344 67.398438 263.460938 68.765625 C 264.300781 70.570312 265.855469 71.972656 267.785156 72.5 C 269.03125 72.75 269.933594 72.035156 270.679688 71.164062 C 272.078125 69.480469 272.796875 67.117188 273.136719 64.972656 C 273.480469 62.046875 273.292969 58.839844 272.015625 56.132812 C 271.519531 55.140625 270.710938 53.988281 269.621094 53.582031 C 268.128906 53.148438 266.511719 53.582031 265.359375 54.609375 C 263.804688 55.980469 263.148438 57.660156 262.308594 59.496094 C 262.277344 58 262.527344 56.539062 262.964844 55.109375 C 263.273438 54.207031 263.742188 53.394531 264.019531 52.492188 C 260.597656 52.371094 257.175781 52.246094 253.785156 52.183594 C 251.078125 52.089844 248.402344 52.058594 245.695312 52.371094 C 242.863281 52.617188 239.535156 52.898438 237.230469 54.734375 C 236.175781 55.480469 235.707031 56.539062 235.179688 57.660156 C 233.933594 60.398438 233.5 63.507812 233.964844 66.464844 C 234.277344 68.519531 234.898438 70.414062 236.578125 71.691406 Z M 271.832031 63.105469 C 271.832031 65.125 271.582031 67.648438 270.367188 69.359375 C 269.558594 70.351562 268.378906 70.570312 267.257812 69.886719 C 265.761719 68.859375 264.675781 67.085938 263.929688 65.4375 C 263.742188 65.09375 263.710938 64.722656 263.679688 64.347656 C 266.480469 64.222656 269.15625 63.789062 271.832031 63.105469 Z M 254.035156 64.941406 C 256.429688 65 258.792969 64.753906 261.191406 64.691406 C 260.941406 67.085938 261.128906 69.015625 261.78125 71.285156 C 254.003906 71.316406 246.347656 71.441406 238.601562 70.851562 C 237.980469 70.789062 237.542969 70.292969 237.140625 69.886719 C 236.359375 69.046875 235.613281 68.269531 235.179688 67.179688 C 234.710938 65.996094 234.402344 64.785156 234.089844 63.570312 C 240.71875 63.851562 247.375 64.910156 254.035156 64.941406 Z M 254.035156 64.941406 " fill-opacity="1" fill-rule="nonzero"/><path fill="#523a2c" d="M 209.882812 119.542969 C 211.90625 119.917969 213.960938 120.167969 216.011719 120.382812 C 214.707031 125.984375 213.960938 131.648438 213.210938 137.308594 C 212.777344 140.078125 212.496094 142.878906 212.308594 145.710938 C 212.277344 146.800781 212.15625 147.828125 212.496094 148.882812 C 213.460938 142.601562 214.832031 136.40625 216.042969 130.152344 C 217.476562 123.089844 218.90625 116.027344 220.523438 108.996094 C 222.859375 99.351562 225.378906 89.800781 228.519531 80.371094 C 229.203125 78.441406 230.074219 76.546875 230.792969 74.617188 C 230.261719 74.585938 229.734375 74.523438 229.203125 74.554688 C 227.214844 74.585938 225.222656 74.617188 223.230469 74.710938 C 222.546875 74.679688 222.546875 75.207031 222.296875 75.675781 C 221.457031 77.570312 220.648438 79.5 219.964844 81.429688 C 217.691406 88.304688 215.703125 95.277344 213.898438 102.308594 C 212.371094 108.03125 211.003906 113.695312 209.882812 119.542969 Z M 209.882812 119.542969 " fill-opacity="1" fill-rule="nonzero"/><path fill="#523a2c" d="M 204.78125 122.066406 C 204.160156 125.269531 203.566406 128.472656 203.101562 131.710938 C 202.414062 136.8125 201.792969 141.730469 201.886719 146.894531 C 202.632812 143.59375 203.132812 140.265625 203.847656 136.96875 C 206.242188 125.175781 208.453125 113.226562 211.53125 101.589844 C 213.242188 94.683594 215.265625 87.871094 217.445312 81.085938 C 218.097656 79.097656 219 77.199219 219.714844 75.238281 C 218.9375 75.269531 218.222656 75.332031 217.476562 75.519531 L 217.320312 75.550781 C 215.109375 76.078125 212.527344 76.605469 210.816406 78.164062 C 209.042969 79.71875 208.265625 81.957031 207.425781 84.105469 C 205.246094 90.078125 203.628906 96.425781 202.074219 102.554688 C 200.859375 107.691406 199.460938 112.855469 198.683594 118.050781 C 200.890625 118.457031 203.164062 118.609375 205.402344 118.859375 C 205.277344 119.980469 204.96875 121.007812 204.78125 122.066406 Z M 204.78125 122.066406 " fill-opacity="1" fill-rule="nonzero"/><path fill="#523a2c" d="M 250.890625 119.265625 C 252.570312 111.640625 254.59375 104.082031 256.894531 96.613281 C 259.042969 89.863281 261.40625 83.109375 264.269531 76.636719 C 264.425781 76.296875 264.488281 75.921875 264.582031 75.519531 C 263.929688 75.488281 263.273438 75.457031 262.621094 75.425781 C 260.472656 75.238281 258.296875 75.207031 256.148438 74.988281 C 256.023438 75.207031 255.902344 75.425781 255.808594 75.644531 C 254.90625 77.726562 253.972656 79.8125 253.195312 81.957031 C 251.046875 88.523438 249.117188 95.152344 247.375 101.808594 C 245.726562 108.40625 244.015625 115.0625 242.800781 121.785156 C 244.792969 121.597656 246.691406 121.628906 248.683594 121.722656 C 249.429688 120.976562 250.796875 120.382812 250.890625 119.265625 Z M 250.890625 119.265625 " fill-opacity="1" fill-rule="nonzero"/><path fill="#523a2c" d="M 267.476562 76.234375 C 263.648438 84.882812 260.566406 93.75 257.953125 102.835938 C 256.863281 106.632812 255.839844 110.460938 254.90625 114.285156 C 254.5625 115.65625 254.1875 117.023438 254.003906 118.425781 C 255.464844 118.269531 256.894531 117.957031 258.390625 117.894531 C 259.914062 117.769531 261.40625 117.863281 262.902344 117.617188 C 264.921875 108.964844 267.414062 100.410156 270.335938 92.007812 C 272.046875 86.96875 274.101562 82.082031 276.1875 77.230469 C 274.007812 76.730469 271.800781 76.359375 269.589844 76.046875 C 268.8125 76.015625 268.160156 75.734375 267.476562 76.234375 Z M 267.476562 76.234375 " fill-opacity="1" fill-rule="nonzero"/><path fill="#523a2c" d="M 265.734375 117.675781 C 268.46875 117.617188 271.175781 117.585938 273.914062 117.644531 C 274.382812 115.964844 274.664062 114.253906 275.066406 112.574219 C 277.585938 101.375 280.792969 90.421875 285.117188 79.78125 C 283.34375 78.941406 281.414062 78.320312 279.484375 77.945312 C 278.769531 77.695312 278.769531 78.660156 278.457031 79.097656 C 274.972656 86.71875 272.296875 94.527344 269.808594 102.523438 C 268.378906 107.535156 266.820312 112.574219 265.734375 117.675781 Z M 265.734375 117.675781 " fill-opacity="1" fill-rule="nonzero"/><path fill="#523a2c" d="M 161.160156 123.621094 C 165.265625 123.496094 169.34375 123.652344 173.449219 123.464844 C 178.519531 123.433594 183.625 123.496094 188.695312 123.371094 C 190.964844 123.183594 193.019531 123.277344 195.074219 122.21875 C 195.695312 119.917969 195.757812 117.492188 196.378906 115.125 C 195.445312 114.597656 194.417969 114.222656 193.425781 113.851562 C 191.339844 112.949219 188.757812 113.289062 186.515625 113.257812 C 179.984375 113.445312 173.480469 113.105469 166.945312 113.414062 C 162.621094 113.539062 158.296875 113.570312 153.972656 113.851562 C 152.355469 114.066406 150.640625 114.535156 149.117188 115.125 C 153.132812 115.871094 157.207031 116.277344 161.222656 116.867188 C 161.253906 119.140625 161.035156 121.378906 161.160156 123.621094 Z M 181.226562 115.53125 C 185.675781 115.28125 190.125 115.3125 194.574219 115.03125 C 192.894531 115.375 191.152344 115.46875 189.472656 115.6875 C 181.539062 116.496094 173.636719 117.429688 165.703125 118.144531 C 164.707031 118.238281 163.742188 118.394531 162.714844 118.300781 C 162.714844 117.707031 162.683594 117.117188 162.683594 116.527344 C 168.8125 116.058594 175.035156 115.78125 181.226562 115.53125 Z M 162.777344 119.203125 C 165.484375 118.890625 168.222656 118.921875 170.929688 118.703125 C 178.863281 118.082031 186.765625 117.492188 194.699219 117.117188 C 194.699219 118.578125 194.605469 120.414062 193.921875 121.722656 C 192.398438 121.941406 190.808594 121.910156 189.285156 122.097656 C 183.808594 122.59375 178.273438 122.53125 172.796875 122.75 C 169.28125 122.75 165.734375 122.78125 162.21875 122.78125 C 162.402344 121.566406 162.464844 120.351562 162.777344 119.203125 Z M 162.777344 119.203125 " fill-opacity="1" fill-rule="nonzero"/><path fill="#523a2c" d="M 297.125 124.054688 C 296.722656 122.996094 295.882812 122.40625 294.917969 121.910156 C 293.671875 121.285156 292.085938 121.222656 290.71875 121.101562 C 286.984375 120.851562 283.25 120.726562 279.515625 120.539062 C 274.601562 120.199219 269.683594 120.167969 264.769531 120.230469 C 262.339844 120.199219 259.945312 120.351562 257.519531 120.320312 C 259.042969 120.632812 260.597656 120.789062 262.09375 121.195312 C 263.648438 121.535156 265.046875 122.25 266.605469 122.59375 C 267.320312 122.8125 267.039062 123.714844 267.007812 124.242188 C 266.636719 126.605469 266.449219 129.003906 266.105469 131.398438 C 264.050781 131.523438 261.96875 131.523438 259.882812 131.554688 C 257.921875 131.554688 255.992188 131.804688 254.035156 131.867188 C 259.042969 132.394531 264.207031 131.988281 269.21875 131.835938 C 273.355469 131.617188 277.523438 131.554688 281.664062 131.242188 C 285.519531 130.808594 289.628906 131.117188 293.484375 130.464844 C 294.824219 130.246094 295.976562 129.128906 296.660156 128.039062 C 297.5 126.980469 297.21875 125.300781 297.125 124.054688 Z M 268.160156 124.023438 C 269.03125 123.839844 269.964844 123.871094 270.835938 123.898438 C 274.039062 124.148438 277.246094 124.335938 280.449219 124.492188 C 283.871094 124.800781 287.292969 124.710938 290.6875 125.050781 C 289.035156 125.144531 287.355469 125.269531 285.707031 125.394531 C 279.765625 125.953125 273.820312 126.140625 267.878906 126.453125 C 267.941406 125.644531 267.972656 124.800781 268.160156 124.023438 Z M 293.113281 129.71875 C 290.3125 130.652344 287.140625 130.839844 284.183594 130.839844 C 279.921875 130.964844 275.6875 131.304688 271.425781 131.304688 C 269.871094 131.273438 268.347656 131.492188 266.789062 131.429688 C 267.101562 130.0625 267.257812 128.722656 267.691406 127.417969 C 271.957031 127.476562 276.1875 127.507812 280.449219 127.417969 C 285.457031 127.355469 290.4375 126.980469 295.445312 127.011719 C 295.195312 128.257812 294.324219 129.3125 293.113281 129.71875 Z M 293.113281 129.71875 " fill-opacity="1" fill-rule="nonzero"/><path fill="#523a2c" d="M 236.765625 131.429688 C 235.894531 136.90625 235.210938 142.445312 234.523438 147.953125 C 234.339844 149.757812 234.058594 151.652344 234.246094 153.457031 C 235.117188 148.230469 235.925781 142.972656 237.046875 137.808594 C 237.449219 135.566406 238.011719 133.359375 238.289062 131.085938 C 237.855469 131.117188 236.796875 130.714844 236.765625 131.429688 Z M 236.765625 131.429688 " fill-opacity="1" fill-rule="nonzero"/><path fill="#523a2c" d="M 246.785156 132.582031 C 246.039062 137.1875 245.539062 141.851562 245.105469 146.488281 C 244.574219 150.628906 244.636719 154.859375 244.824219 158.996094 C 244.980469 157.90625 245.105469 156.789062 245.167969 155.667969 C 245.726562 148.792969 246.628906 141.914062 247.75 135.101562 C 247.933594 134.042969 248.152344 133.046875 248.214844 131.957031 C 247.625 132.113281 246.785156 131.679688 246.785156 132.582031 Z M 246.785156 132.582031 " fill-opacity="1" fill-rule="nonzero"/><path fill="#523a2c" d="M 258.578125 138.804688 C 258.792969 137.308594 259.136719 135.847656 259.261719 134.355469 C 258.792969 134.324219 258.328125 134.292969 257.859375 134.324219 C 257.644531 135.226562 257.644531 136.097656 257.582031 137.03125 C 257.269531 141.789062 256.863281 146.582031 256.460938 151.34375 C 256.117188 154.328125 255.777344 157.628906 256.398438 160.582031 C 256.304688 158.53125 256.492188 156.507812 256.648438 154.453125 C 257.050781 149.195312 257.765625 144 258.578125 138.804688 Z M 258.578125 138.804688 " fill-opacity="1" fill-rule="nonzero"/><path fill="#523a2c" d="M 154.59375 167.335938 C 157.144531 165 160.039062 163.820312 163.179688 162.542969 C 168.378906 160.675781 173.667969 159.183594 179.113281 158.3125 C 182.253906 157.8125 185.335938 157.253906 188.507812 157.035156 C 188.976562 156.972656 189.628906 157.035156 189.9375 156.632812 C 185.550781 156.414062 180.886719 157.347656 176.621094 158.3125 C 169.15625 160.023438 161.34375 161.640625 154.066406 164.039062 C 151.234375 164.785156 148.527344 166.027344 146.070312 167.585938 C 145.601562 167.863281 145.289062 168.238281 144.980469 168.671875 C 144.511719 169.359375 144.078125 170.105469 143.796875 170.882812 C 146.039062 171.441406 148.339844 171.910156 150.613281 172.375 C 150.519531 173.683594 150.175781 174.925781 150.050781 176.234375 C 149.738281 179.3125 149.679688 182.457031 149.832031 185.566406 C 149.957031 187.09375 150.144531 188.773438 150.796875 190.171875 C 150.457031 185.660156 150.394531 181.054688 150.921875 176.542969 C 151.484375 173.371094 152.199219 169.636719 154.59375 167.335938 Z M 154.59375 167.335938 " fill-opacity="1" fill-rule="nonzero"/><path fill="#523a2c" d="M 189.441406 157.722656 C 181.195312 158.996094 172.734375 160.304688 164.921875 163.289062 C 163.554688 163.757812 162.246094 164.191406 161.003906 164.910156 C 159.664062 165.5625 158.328125 166.121094 157.113281 167.054688 C 156.148438 167.800781 155.464844 168.921875 154.96875 170.011719 C 154.5625 171.007812 154.28125 172.035156 154.128906 173.089844 C 156.335938 173.589844 158.578125 173.839844 160.816406 174.304688 C 159.664062 179.160156 159.820312 184.136719 160.722656 188.992188 C 160.941406 190.078125 161.191406 191.136719 161.78125 192.070312 C 161.8125 189.613281 161.375 187.09375 161.222656 184.632812 C 160.972656 181.117188 161.253906 177.539062 162.03125 174.085938 C 162.652344 171.691406 163.585938 169.359375 165.640625 167.832031 C 167.910156 166.214844 170.367188 164.753906 172.949219 163.695312 C 177.089844 162.203125 181.257812 161.269531 185.550781 160.367188 C 188.042969 159.867188 190.46875 159.183594 193.019531 158.839844 C 194.355469 158.59375 195.851562 158.53125 197.125 158.0625 C 195.757812 157.84375 194.386719 157.691406 193.019531 157.503906 C 191.804688 157.253906 190.6875 157.535156 189.441406 157.722656 Z M 189.441406 157.722656 " fill-opacity="1" fill-rule="nonzero"/><path fill="#523a2c" d="M 174.972656 169.636719 C 178.363281 166.992188 182.191406 165.3125 186.207031 163.789062 C 188.226562 163.011719 190.3125 162.449219 192.429688 161.921875 C 196.722656 160.832031 201.078125 159.929688 205.464844 159.246094 C 203.847656 158.808594 201.824219 158.5 200.175781 158.65625 C 196.660156 159.339844 193.113281 159.835938 189.628906 160.613281 C 184.152344 161.953125 178.863281 162.761719 173.542969 164.847656 C 172.640625 165.21875 171.800781 165.71875 170.960938 166.214844 C 168.78125 167.398438 166.230469 169.203125 165.328125 171.597656 C 164.921875 172.59375 164.707031 173.621094 164.457031 174.679688 C 166.386719 175.050781 168.347656 175.238281 170.304688 175.488281 C 170.304688 176.265625 170.214844 177.042969 170.121094 177.820312 C 169.621094 181.429688 169.871094 185.132812 170.367188 188.710938 C 170.617188 190.171875 170.835938 191.726562 171.457031 193.066406 C 171.457031 190.109375 170.835938 187.277344 170.742188 184.355469 C 170.648438 181.367188 170.617188 178.535156 171.363281 175.644531 C 171.894531 173.277344 172.921875 170.976562 174.972656 169.636719 Z M 174.972656 169.636719 " fill-opacity="1" fill-rule="nonzero"/><path fill="#523a2c" d="M 138.664062 174.335938 C 137.855469 178.753906 137.730469 183.359375 139.097656 187.683594 C 139.128906 186.96875 139.128906 186.253906 139.066406 185.535156 C 138.695312 181.242188 139.097656 176.886719 140.40625 172.78125 C 141.121094 170.320312 142.554688 167.957031 144.480469 166.277344 C 146.535156 164.503906 149.585938 163.820312 152.105469 163.011719 C 153.472656 162.542969 154.9375 162.449219 156.304688 162.015625 C 160.289062 160.769531 164.332031 159.929688 168.347656 158.902344 C 160.660156 159.867188 153.101562 160.988281 145.632812 163.042969 C 142.117188 163.820312 138.757812 164.816406 135.519531 166.402344 C 134.679688 166.867188 133.933594 167.398438 133.25 168.082031 C 135.429688 168.890625 137.636719 169.390625 139.847656 170.042969 C 139.566406 171.441406 138.945312 172.84375 138.664062 174.335938 Z M 138.664062 174.335938 " fill-opacity="1" fill-rule="nonzero"/><path fill="#523a2c" d="M 183.28125 171.410156 C 184.835938 169.855469 186.765625 168.578125 188.695312 167.523438 C 191.867188 165.65625 195.382812 164.628906 198.929688 163.695312 C 202.914062 162.542969 206.988281 161.609375 211.066406 160.832031 C 212.15625 160.613281 213.148438 160.582031 214.175781 160.210938 C 212.1875 160.023438 209.945312 159.371094 208.015625 159.835938 C 201.636719 161.019531 195.289062 162.292969 189.035156 164.128906 C 186.238281 164.96875 183.59375 166.183594 180.949219 167.429688 C 178.957031 168.425781 177.027344 169.730469 175.503906 171.410156 C 174.878906 172.09375 174.570312 172.964844 174.226562 173.839844 C 174.007812 174.523438 173.882812 175.207031 173.730469 175.890625 C 175.597656 176.265625 177.492188 176.484375 179.359375 176.792969 C 178.957031 180.246094 178.925781 183.671875 179.453125 187.125 C 179.828125 189.488281 180.136719 192.039062 181.101562 194.25 C 181.101562 192.570312 180.699219 190.949219 180.574219 189.269531 C 180.105469 185.722656 180.261719 182.238281 180.574219 178.691406 C 180.824219 176.171875 181.601562 173.371094 183.28125 171.410156 Z M 183.28125 171.410156 " fill-opacity="1" fill-rule="nonzero"/><path fill="#523a2c" d="M 192.800781 174.742188 C 193.609375 173.214844 194.949219 172.28125 196.472656 171.566406 C 199.242188 170.199219 202.230469 169.234375 205.152344 168.363281 C 208.046875 167.492188 210.941406 166.683594 213.898438 165.996094 C 219.15625 164.785156 224.414062 163.414062 229.734375 162.324219 C 227.183594 161.796875 224.570312 161.578125 221.988281 161.238281 C 220.367188 161.082031 218.59375 160.613281 217.007812 160.863281 C 215.234375 161.113281 213.460938 161.421875 211.71875 161.828125 C 207.332031 162.886719 202.945312 163.945312 198.621094 165.25 C 197.46875 165.65625 196.410156 166.183594 195.257812 166.558594 C 193.609375 167.148438 191.867188 167.613281 190.28125 168.363281 C 188.476562 169.265625 186.671875 170.351562 185.210938 171.753906 C 184.308594 172.59375 183.996094 173.960938 183.683594 175.113281 C 183.5 175.890625 183.3125 176.605469 183.3125 177.417969 C 185.832031 177.789062 188.320312 178.101562 190.839844 178.503906 C 189.847656 182.582031 189.691406 187.09375 190.871094 191.136719 C 191.277344 192.507812 191.589844 194.0625 192.398438 195.246094 C 192.335938 193.71875 191.898438 192.351562 191.652344 190.824219 C 191.058594 187.339844 190.933594 183.761719 191.339844 180.277344 C 191.527344 178.410156 191.960938 176.453125 192.800781 174.742188 Z M 192.800781 174.742188 " fill-opacity="1" fill-rule="nonzero"/><path fill="#523a2c" d="M 260.910156 167.554688 C 255.558594 169.761719 249.707031 171.007812 244.046875 172.09375 C 239.628906 173.089844 235.148438 173.992188 230.667969 174.679688 C 227.460938 175.175781 224.132812 175.890625 221.207031 177.292969 C 219.402344 178.164062 218.160156 179.46875 217.320312 181.273438 C 218.5 181.554688 219.777344 181.460938 220.992188 181.554688 C 224.351562 181.648438 227.679688 181.894531 231.039062 181.925781 C 231.972656 181.117188 232.875 180.246094 233.777344 179.375 C 234.277344 178.910156 234.804688 178.503906 235.367188 178.070312 C 236.734375 177.507812 237.949219 176.636719 239.316406 176.046875 C 242.460938 174.585938 245.664062 174.054688 249.054688 173.464844 C 252.945312 172.78125 256.988281 172.4375 260.878906 171.878906 C 262.964844 171.597656 265.171875 171.132812 267.039062 170.167969 C 268.222656 169.636719 268.5 168.332031 268.78125 167.179688 C 266.664062 167.023438 264.550781 166.714844 262.433594 166.464844 C 261.90625 166.898438 261.53125 167.335938 260.910156 167.554688 Z M 260.910156 167.554688 " fill-opacity="1" fill-rule="nonzero"/><path fill="#523a2c" d="M 204.9375 176.949219 C 205.871094 175.425781 207.300781 174.429688 208.886719 173.683594 C 210.164062 172.996094 211.5625 172.875 212.902344 172.375 C 214.082031 171.941406 215.296875 171.535156 216.511719 171.132812 C 221.488281 169.667969 226.527344 168.363281 231.570312 167.054688 C 235.582031 165.964844 239.628906 165.0625 243.703125 164.222656 C 241.710938 163.695312 239.597656 163.601562 237.542969 163.289062 C 235.957031 163.136719 234.371094 162.667969 232.8125 163.042969 C 227.679688 164.253906 222.546875 165.375 217.445312 166.742188 C 213.335938 167.832031 209.167969 168.703125 205.121094 169.917969 C 202.167969 170.726562 198.960938 171.597656 196.378906 173.339844 C 195.632812 173.808594 195.230469 174.554688 194.824219 175.300781 C 194.355469 176.453125 194.203125 177.757812 193.984375 178.972656 C 196.785156 179.46875 199.617188 179.6875 202.414062 180 C 202.136719 182.269531 201.980469 184.511719 202.355469 186.78125 C 202.789062 189.488281 203.164062 192.257812 204.128906 194.808594 C 203.503906 190.855469 202.914062 187.0625 203.226562 183.046875 C 203.410156 180.933594 204.003906 178.878906 204.9375 176.949219 Z M 204.9375 176.949219 " fill-opacity="1" fill-rule="nonzero"/><path fill="#523a2c" d="M 246.347656 205.980469 C 246.441406 206.257812 246.535156 206.539062 246.660156 206.820312 C 246.191406 206.851562 245.726562 206.878906 245.257812 206.910156 C 247 207.316406 248.804688 207.8125 250.578125 207.875 C 249.242188 207.285156 247.933594 206.664062 246.597656 206.070312 Z M 246.347656 205.980469 " fill-opacity="1" fill-rule="nonzero"/><path fill="#523a2c" d="M 195.476562 233.484375 C 195.976562 232.613281 196.722656 232.019531 197.46875 231.335938 C 200.671875 228.535156 204.066406 225.765625 207.675781 223.496094 C 208.328125 223.089844 208.980469 222.6875 209.511719 222.125 C 189.285156 218.953125 169.09375 215.6875 148.867188 212.480469 C 147.625 212.261719 146.410156 212.046875 145.136719 211.984375 C 146.753906 214.597656 148.746094 216.835938 150.550781 219.296875 C 151.140625 220.136719 151.980469 220.914062 152.292969 221.878906 C 151.730469 221.628906 151.203125 221.347656 150.703125 220.976562 C 149.242188 219.855469 147.84375 218.671875 146.441406 217.460938 C 145.320312 216.464844 144.480469 215.34375 143.457031 214.253906 C 143.144531 215 142.957031 215.808594 142.769531 216.621094 C 140.0625 227.601562 137.109375 238.773438 134.835938 249.847656 C 136.890625 248.230469 139.097656 246.832031 141.464844 245.742188 C 142.894531 245.058594 144.386719 244.527344 145.851562 243.875 C 142.707031 244.558594 139.722656 245.898438 136.671875 246.832031 C 136.734375 246.207031 136.828125 245.585938 136.984375 244.996094 C 138.042969 240.734375 139.097656 236.40625 140.375 232.207031 C 142.582031 232.519531 144.109375 233.699219 146.039062 234.664062 C 155.964844 240.046875 166.449219 244.402344 177.089844 248.105469 C 181.941406 249.816406 187.015625 250.9375 192.085938 251.777344 C 191.402344 250.597656 190.53125 249.539062 189.90625 248.324219 C 186.578125 247.640625 183.1875 246.925781 179.953125 245.867188 C 172.390625 243.441406 164.984375 240.515625 157.707031 237.339844 C 156.835938 236.96875 155.992188 236.59375 155.183594 236.097656 C 158.667969 236.75 162.125 237.589844 165.609375 238.273438 C 170.773438 239.425781 175.96875 240.078125 181.164062 240.886719 C 184.992188 241.511719 188.851562 241.882812 192.675781 242.539062 C 196.691406 243.191406 200.765625 243.71875 204.78125 244.371094 C 204.21875 246.332031 203.722656 248.261719 203.257812 250.253906 C 198.992188 249.695312 194.730469 249.101562 190.46875 248.449219 C 194.417969 251.621094 198.089844 255.105469 201.574219 258.777344 C 201.886719 259.121094 202.261719 259.433594 202.664062 259.679688 C 204.4375 251.558594 206.023438 243.410156 207.796875 235.289062 C 208.421875 231.957031 209.292969 228.660156 209.820312 225.300781 C 208.949219 225.671875 208.171875 226.171875 207.332031 226.636719 C 203.441406 228.941406 199.429688 231.179688 195.476562 233.484375 Z M 201.824219 256.414062 C 200.050781 255.105469 198.308594 253.769531 196.535156 252.492188 C 198.558594 252.554688 200.582031 253.054688 202.601562 253.242188 C 202.414062 254.328125 202.199219 255.386719 201.824219 256.414062 Z M 201.824219 256.414062 " fill-opacity="1" fill-rule="nonzero"/><path fill="#523a2c" d="M 222.578125 229.53125 L 222.453125 229.5625 L 222.515625 229.59375 C 223.136719 230 223.761719 230.308594 224.195312 230.933594 C 224.414062 231.304688 224.445312 231.804688 224.539062 232.207031 C 224.632812 232.457031 224.722656 232.675781 224.816406 232.921875 C 225.8125 231.335938 224.195312 229.53125 222.578125 229.53125 Z M 222.578125 229.53125 " fill-opacity="1" fill-rule="nonzero"/><path fill="#523a2c" d="M 218.9375 234.726562 L 218.8125 234.757812 C 218.71875 235.070312 218.75 235.351562 218.875 235.566406 C 219.28125 235.910156 219.902344 235.597656 220.335938 235.503906 C 219.621094 235.472656 219.371094 235.289062 218.9375 234.726562 Z M 218.9375 234.726562 " fill-opacity="1" fill-rule="nonzero"/><path fill="#523a2c" d="M 198.339844 260.148438 C 189.285156 259.027344 180.230469 257.378906 171.269531 255.855469 C 165.203125 254.828125 159.105469 254.082031 153.007812 253.242188 C 148.058594 252.554688 143.175781 251.527344 138.257812 250.6875 C 137.574219 250.6875 136.828125 251.652344 136.390625 252.121094 C 137.855469 252.460938 139.316406 252.585938 140.808594 252.835938 C 160.722656 256.039062 180.636719 259.433594 200.550781 262.730469 C 200.890625 262.761719 201.234375 262.792969 201.574219 262.824219 C 201.015625 261.984375 200.332031 261.238281 199.617188 260.550781 C 199.273438 260.242188 198.714844 260.242188 198.339844 260.148438 Z M 198.339844 260.148438 " fill-opacity="1" fill-rule="nonzero"/><path fill="#523a2c" d="M 133.0625 272.15625 C 131.351562 271.753906 129.640625 271.441406 127.929688 271.007812 C 128.550781 270.539062 129.234375 270.257812 129.953125 269.949219 C 132.722656 268.671875 135.488281 267.367188 138.257812 266.121094 C 139.097656 265.71875 139.910156 265.5 140.625 264.878906 C 139.316406 264.285156 138.507812 265.0625 137.355469 265.53125 C 130.605469 268.515625 123.851562 271.535156 117.101562 274.492188 C 116.199219 274.894531 115.359375 275.113281 114.582031 275.703125 C 116.636719 276.359375 118.75 277.167969 120.835938 277.601562 C 124.101562 276.203125 127.121094 274.925781 130.355469 273.527344 C 131.289062 273.058594 132.222656 272.78125 133.0625 272.15625 Z M 133.0625 272.15625 " fill-opacity="1" fill-rule="nonzero"/><path fill="#523a2c" d="M 143.578125 274.398438 C 141.710938 273.992188 139.816406 273.652344 137.949219 273.152344 C 141.992188 271.070312 146.132812 269.171875 150.207031 267.148438 C 150.425781 267.023438 150.613281 266.867188 150.796875 266.679688 C 149.988281 266.773438 149.398438 267.179688 148.683594 267.492188 C 140.4375 270.976562 132.222656 274.492188 123.976562 277.945312 C 123.761719 278.070312 123.542969 278.195312 123.355469 278.378906 C 125.628906 279.066406 127.929688 279.6875 130.199219 280.246094 C 130.636719 280.402344 131.132812 280.089844 131.539062 279.9375 C 135.335938 278.195312 139.160156 276.574219 142.988281 274.894531 C 143.207031 274.769531 143.425781 274.617188 143.578125 274.398438 Z M 143.578125 274.398438 " fill-opacity="1" fill-rule="nonzero"/><path fill="#523a2c" d="M 153.007812 276.453125 C 151.542969 276.015625 149.957031 275.953125 148.558594 275.332031 C 152.570312 273.589844 156.554688 271.785156 160.535156 269.980469 C 161.222656 269.667969 161.9375 269.355469 162.589844 268.984375 C 162.15625 268.890625 161.5625 268.609375 161.128906 268.734375 C 152.664062 272.46875 144.046875 276.171875 135.550781 279.875 C 134.773438 280.214844 133.964844 280.496094 133.25 280.960938 C 134.804688 281.460938 136.421875 281.835938 137.980469 282.332031 C 138.820312 282.675781 139.378906 282.207031 140.125 281.925781 C 143.546875 280.464844 147.003906 279.097656 150.457031 277.632812 C 151.328125 277.261719 152.261719 277.011719 153.007812 276.453125 Z M 153.007812 276.453125 " fill-opacity="1" fill-rule="nonzero"/><path fill="#523a2c" d="M 118.6875 268.921875 C 118.253906 268.765625 117.816406 269.015625 117.414062 269.171875 C 114.207031 270.632812 111.035156 272.09375 107.796875 273.433594 C 109.074219 274.242188 110.785156 274.367188 112.1875 274.925781 C 115.796875 273.214844 119.464844 271.691406 123.074219 269.949219 C 121.582031 269.605469 120.121094 269.265625 118.6875 268.921875 Z M 118.6875 268.921875 " fill-opacity="1" fill-rule="nonzero"/><path fill="#523a2c" d="M 164.082031 278.722656 C 162.125 278.257812 160.164062 277.945312 158.171875 277.476562 C 159.386719 276.792969 160.660156 276.359375 161.90625 275.765625 C 165.546875 274.148438 169.1875 272.5625 172.765625 270.882812 C 172.109375 270.726562 171.675781 270.632812 171.054688 270.945312 C 162 274.648438 152.976562 278.378906 143.921875 282.082031 C 143.019531 282.457031 142.085938 282.796875 141.214844 283.234375 C 142.894531 284.167969 144.886719 284.570312 146.660156 285.382812 C 147.3125 285.566406 148.246094 286.222656 148.867188 285.816406 C 153.535156 283.636719 158.265625 281.492188 162.964844 279.34375 C 163.398438 279.160156 163.742188 278.941406 164.082031 278.722656 Z M 164.082031 278.722656 " fill-opacity="1" fill-rule="nonzero"/><path fill="#523a2c" d="M 174.414062 280.902344 C 172.609375 280.496094 170.773438 280.183594 169 279.71875 C 169.3125 279.5 169.621094 279.28125 169.964844 279.128906 C 173.355469 277.570312 176.683594 275.890625 180.046875 274.304688 C 181.132812 273.777344 182.160156 273.402344 183.125 272.71875 C 182.503906 272.625 181.941406 272.5 181.351562 272.8125 C 171.957031 277.105469 162.527344 281.367188 153.132812 285.628906 C 152.324219 286.035156 151.359375 286.3125 150.671875 286.90625 C 152.851562 287.683594 155.03125 288.460938 157.269531 289.175781 C 161.96875 286.875 166.695312 284.726562 171.425781 282.488281 C 172.484375 281.925781 173.511719 281.617188 174.414062 280.902344 Z M 174.414062 280.902344 " fill-opacity="1" fill-rule="nonzero"/><path fill="#523a2c" d="M 161.78125 288.710938 C 160.941406 289.113281 160.101562 289.363281 159.386719 289.953125 C 160.226562 290.296875 161.066406 290.609375 161.90625 290.917969 C 163.523438 290.265625 165.171875 289.738281 166.757812 289.019531 C 170.617188 287.246094 174.476562 285.503906 178.332031 283.792969 C 179.328125 283.328125 180.324219 282.984375 181.257812 282.394531 C 180.511719 282.207031 179.765625 282.050781 178.988281 281.863281 C 180.324219 280.902344 181.910156 280.277344 183.34375 279.46875 C 186.328125 277.820312 189.410156 276.296875 192.367188 274.585938 C 191.183594 274.988281 190.09375 275.609375 188.945312 276.109375 C 179.953125 280.277344 170.898438 284.511719 161.78125 288.710938 Z M 161.78125 288.710938 " fill-opacity="1" fill-rule="nonzero"/><path fill="#ff8c3e" d="M 180.015625 142.132812 C 180.292969 142.164062 180.574219 142.195312 180.824219 142.257812 C 180.574219 142.226562 180.292969 142.226562 180.046875 142.226562 C 179.953125 144.375 180.417969 146.425781 180.511719 148.542969 C 180.699219 150.472656 180.886719 152.433594 181.070312 154.359375 C 182.253906 154.359375 183.375 154.265625 184.554688 154.050781 C 184.929688 154.019531 185.304688 153.988281 185.644531 153.957031 C 185.367188 150.066406 184.773438 146.207031 184.527344 142.320312 C 184.089844 136.625 183.683594 130.933594 182.691406 125.300781 L 182.097656 125.300781 C 180.792969 125.300781 179.515625 125.269531 178.210938 125.269531 C 178.425781 128.410156 178.769531 131.585938 179.113281 134.726562 C 179.453125 137.15625 179.515625 139.707031 180.015625 142.132812 Z M 180.015625 142.132812 " fill-opacity="1" fill-rule="nonzero"/><path fill="#ff8c3e" d="M 214.269531 217.925781 C 212.871094 224.832031 211.40625 231.804688 209.945312 238.710938 C 207.332031 250.6875 204.53125 262.605469 201.886719 274.585938 C 201.699219 275.144531 201.761719 275.828125 201.109375 276.078125 C 197.71875 277.664062 194.234375 279.097656 190.871094 280.777344 C 188.789062 281.835938 186.640625 282.734375 184.527344 283.761719 C 181.132812 285.410156 177.617188 286.75 174.195312 288.367188 C 169.15625 290.734375 163.867188 292.878906 159.042969 295.617188 C 158.390625 295.960938 158.140625 296.613281 157.953125 297.265625 C 157.675781 298.355469 157.675781 299.539062 157.738281 300.65625 L 158.390625 301.125 C 159.105469 301.589844 159.355469 302.058594 159.601562 302.835938 C 165.453125 299.476562 171.738281 296.800781 177.742188 293.75 C 179.953125 292.753906 182.160156 291.726562 184.339844 290.671875 C 191.246094 287.433594 198.121094 284.167969 205.03125 280.933594 C 205.960938 280.496094 206.863281 280.152344 207.613281 279.4375 C 208.015625 279.066406 208.328125 278.878906 208.359375 278.316406 C 211.78125 259.648438 215.359375 240.980469 218.84375 222.3125 C 219.25 220.789062 219.25 219.109375 219.996094 217.769531 C 221.332031 215.839844 223.417969 214.753906 225.066406 213.195312 C 226.25 212.171875 227.121094 210.832031 227.898438 209.496094 C 228.738281 208.09375 229.265625 206.570312 229.265625 204.921875 C 228.738281 205.730469 227.992188 206.695312 226.933594 206.632812 C 226.34375 206.632812 225.9375 206.320312 225.472656 206.007812 C 224.847656 204.921875 224.691406 203.738281 225.285156 202.585938 C 225.65625 201.746094 226.558594 201.5 226.621094 200.535156 C 225.59375 200.597656 224.722656 200.8125 224.070312 201.652344 C 223.136719 202.929688 223.324219 204.234375 223.511719 205.730469 C 223.230469 208.0625 222.046875 210.335938 220.460938 212.046875 C 218.46875 214.128906 215.390625 215.0625 214.269531 217.925781 Z M 214.269531 217.925781 " fill-opacity="1" fill-rule="nonzero"/><path fill="#ff8c3e" d="M 144.824219 204.765625 C 144.886719 204.984375 144.917969 205.230469 144.980469 205.449219 C 145.507812 206.972656 144.855469 208.15625 144.574219 209.648438 L 144.574219 210.304688 C 166.636719 213.726562 188.789062 217.335938 210.847656 220.820312 C 211.035156 219.949219 211.191406 219.078125 211.4375 218.238281 C 211.5625 217.925781 211.6875 217.613281 211.8125 217.304688 C 212.03125 216.773438 212.277344 216.277344 212.558594 215.78125 C 211.097656 215.5625 209.789062 214.9375 208.328125 214.90625 C 207.488281 214.847656 206.679688 214.691406 205.839844 214.566406 C 186.953125 211.671875 168.003906 208.871094 149.179688 205.636719 C 147.6875 205.292969 146.253906 205.046875 144.824219 204.765625 Z M 144.824219 204.765625 " fill-opacity="1" fill-rule="nonzero"/><path fill="#ff8c3e" d="M 133.808594 253.988281 L 133.777344 254.175781 C 133.4375 255.699219 133.03125 257.222656 132.628906 258.714844 C 132.503906 259.214844 132.378906 259.742188 132.285156 260.242188 C 133.4375 260.519531 134.617188 260.769531 135.800781 260.988281 C 142.554688 262.203125 149.273438 263.507812 156.023438 264.722656 C 162.496094 265.71875 168.84375 267.210938 175.285156 268.363281 C 183.5625 269.949219 191.867188 271.441406 200.144531 273.089844 C 200.238281 272.625 200.300781 272.125 200.394531 271.660156 C 200.765625 269.949219 201.046875 268.207031 201.359375 266.496094 C 201.421875 266.152344 201.484375 265.78125 201.542969 265.4375 C 187.667969 263.132812 173.761719 260.769531 159.882812 258.4375 C 152.167969 257.128906 144.449219 255.855469 136.765625 254.421875 C 135.800781 254.328125 134.773438 253.894531 133.808594 253.988281 Z M 133.808594 253.988281 " fill-opacity="1" fill-rule="nonzero"/><path fill="#ff8c3e" d="M 103.941406 282.921875 C 104.375 283.015625 104.8125 283.140625 105.246094 283.234375 C 105.902344 283.390625 106.523438 283.515625 107.175781 283.667969 C 112.808594 284.851562 118.410156 286.128906 123.945312 287.621094 C 128.519531 288.867188 133.125 289.890625 137.636719 291.167969 C 143.113281 292.660156 148.339844 294.933594 153.164062 297.859375 C 153.628906 298.136719 154.066406 298.324219 154.59375 298.480469 C 154.71875 297.640625 154.8125 296.800781 155.03125 295.992188 C 155.339844 294.902344 156.023438 294.03125 156.863281 293.285156 C 157.675781 292.753906 158.578125 292.289062 159.449219 291.851562 C 158.792969 291.789062 158.140625 291.605469 157.519531 291.417969 C 153.007812 290.203125 148.433594 288.898438 144.109375 287.125 C 137.292969 284.511719 130.261719 283.171875 123.261719 281.179688 C 118.097656 279.75 113.058594 278.007812 107.921875 276.542969 C 103.347656 275.300781 98.746094 274.304688 94.078125 273.464844 C 89.9375 272.71875 85.863281 272.09375 81.632812 272.03125 C 80.449219 272.09375 79.390625 272.03125 78.707031 273.121094 L 78.675781 273.152344 C 78.117188 274.769531 77.929688 276.390625 77.710938 278.070312 C 83.5625 278.816406 89.410156 279.65625 95.199219 280.960938 C 98.121094 281.585938 101.015625 282.300781 103.941406 282.921875 Z M 103.941406 282.921875 " fill-opacity="1" fill-rule="nonzero"/><path fill="#ff8c3e" d="M 132.191406 122.46875 C 135.675781 122.46875 139.097656 123.121094 142.554688 123.246094 C 142.523438 121.472656 142.769531 119.730469 142.800781 117.988281 C 139.96875 117.644531 137.140625 117.242188 134.339844 116.929688 C 133.625 116.867188 132.90625 116.835938 132.191406 116.929688 C 132.191406 118.734375 132.066406 120.539062 132.191406 122.3125 Z M 132.191406 122.46875 " fill-opacity="1" fill-rule="nonzero"/><path fill="#ff8c3e" d="M 159.449219 122.996094 C 159.570312 121.253906 159.570312 119.511719 159.664062 117.800781 C 154.5625 117.832031 149.429688 117.863281 144.328125 117.957031 C 144.296875 119.949219 144.234375 121.910156 144.171875 123.871094 C 148.867188 123.746094 153.503906 123.464844 158.203125 123.433594 C 158.609375 123.371094 159.417969 123.589844 159.449219 122.996094 Z M 159.449219 122.996094 " fill-opacity="1" fill-rule="nonzero"/><path fill="#ff8c3e" d="M 265.761719 124.367188 C 263.710938 124.398438 261.6875 124.085938 259.632812 124.117188 C 257.238281 124.117188 254.75 124.054688 252.355469 124.398438 C 252.199219 126.078125 252.011719 127.757812 251.917969 129.4375 C 256.273438 129.625 260.660156 129.6875 265.046875 129.75 C 265.203125 127.945312 265.640625 126.171875 265.761719 124.367188 Z M 265.761719 124.367188 " fill-opacity="1" fill-rule="nonzero"/><path fill="#ff8c3e" d="M 250.550781 129.71875 C 250.488281 127.914062 250.921875 126.140625 250.859375 124.335938 C 248.777344 124.460938 246.660156 124.273438 244.605469 124.585938 C 242.894531 124.832031 241.152344 124.554688 239.441406 124.710938 C 239.285156 124.800781 239.128906 124.894531 238.972656 124.988281 C 238.757812 125.269531 238.320312 125.582031 238.320312 125.953125 C 238.226562 127.136719 238.289062 128.320312 238.257812 129.5 C 242.367188 129.40625 246.441406 129.75 250.550781 129.71875 Z M 250.550781 129.71875 " fill-opacity="1" fill-rule="nonzero"/><path fill="#ff8c3e" d="M 188.164062 153.769531 C 188.726562 153.832031 189.191406 153.832031 189.722656 153.707031 C 190.0625 149.878906 190.71875 146.085938 191.371094 142.289062 C 192.398438 136.5 193.363281 130.714844 194.480469 124.925781 C 192.273438 124.957031 190.125 125.269531 187.917969 125.332031 C 186.703125 125.363281 185.519531 125.332031 184.308594 125.363281 C 184.371094 126.203125 184.527344 127.011719 184.679688 127.820312 C 186.019531 136.46875 186.984375 145.121094 188.164062 153.769531 Z M 188.164062 153.769531 " fill-opacity="1" fill-rule="nonzero"/><path fill="#ff8c3e" d="M 290.21875 160.644531 C 289.9375 159.152344 290.15625 157.785156 290.1875 156.289062 C 289.84375 152.554688 290.15625 148.824219 289.753906 145.089844 C 289.628906 142.382812 289.753906 139.675781 289.503906 137 C 289.410156 135.878906 289.347656 134.757812 289.316406 133.640625 C 286.390625 133.640625 283.40625 133.703125 280.480469 133.980469 C 280.636719 136.46875 281.195312 138.867188 281.320312 141.355469 C 281.476562 142.691406 281.507812 144.0625 281.632812 145.398438 C 281.972656 147.953125 281.816406 150.566406 282.066406 153.179688 C 282.222656 156.539062 282.316406 159.804688 281.941406 163.136719 C 281.726562 165.871094 281.351562 168.921875 279.921875 171.316406 C 278.988281 172.9375 277.867188 174.398438 276.25 175.425781 C 273.945312 176.886719 271.300781 177.695312 268.625 178.070312 C 266.636719 178.503906 264.488281 179.035156 262.402344 179.160156 C 256.679688 179.59375 251.421875 179.71875 246.160156 182.363281 C 242.644531 184.136719 239.597656 186.84375 238.695312 190.824219 C 238.132812 192.816406 238.351562 194.777344 239.191406 196.644531 C 240.0625 198.136719 241.121094 199.414062 242.523438 200.441406 C 246.878906 204.175781 252.324219 206.539062 258.078125 206.882812 C 260.597656 207.003906 263.058594 206.941406 265.546875 206.414062 C 269.839844 205.480469 274.195312 204.019531 277.992188 201.714844 C 279.140625 201.0625 280.015625 200.035156 280.976562 199.101562 C 281.664062 198.386719 282.441406 197.609375 282.875 196.707031 L 282.8125 196.175781 C 282.160156 196.738281 281.695312 197.265625 280.792969 196.863281 C 278.644531 195.898438 276.808594 194.0625 275.316406 192.289062 C 273.355469 189.953125 272.234375 187.03125 271.925781 184.011719 C 271.707031 182.332031 271.550781 180.683594 271.738281 179.003906 C 271.832031 178.472656 272.609375 177.695312 272.765625 178.691406 C 272.980469 181.679688 273.699219 184.601562 275.035156 187.277344 C 276.3125 189.675781 278.210938 191.789062 280.167969 193.65625 C 281.070312 194.527344 282.160156 195.152344 283.09375 195.992188 C 283.746094 195.929688 283.839844 195.304688 284.183594 194.839844 C 285.367188 192.691406 286.640625 190.484375 287.480469 188.210938 C 289.035156 184.011719 289.722656 179.40625 290.1875 174.988281 C 290.59375 170.167969 290.25 165.5625 290.21875 160.644531 Z M 278.269531 199.007812 C 273.820312 202.089844 268.6875 203.988281 263.335938 204.734375 C 259.664062 205.386719 256.117188 204.765625 252.601562 203.675781 C 248.496094 202.308594 244.511719 200.316406 241.679688 196.925781 C 239.9375 194.777344 240.1875 191.757812 240.996094 189.300781 C 241.773438 186.875 243.546875 184.914062 245.945312 184.011719 C 249.988281 182.582031 254.035156 181.398438 258.359375 181.210938 C 262.0625 181.023438 265.578125 180.183594 269.15625 179.3125 C 268.84375 183.421875 269.09375 187.464844 271.023438 191.167969 C 272.703125 194.3125 275.347656 197.050781 278.269531 199.007812 Z M 278.269531 199.007812 " fill-opacity="1" fill-rule="nonzero"/><path fill="#ff8c3e" d="M 236.144531 203.707031 C 238.882812 205.324219 242.148438 206.226562 245.226562 206.910156 C 245.695312 206.878906 246.160156 206.851562 246.628906 206.820312 C 246.535156 206.539062 246.410156 206.257812 246.316406 205.980469 L 246.566406 206.039062 C 245.074219 205.292969 243.546875 204.515625 242.117188 203.644531 C 241.183594 202.898438 240.3125 202.121094 239.378906 201.40625 C 237.355469 199.289062 235.832031 196.613281 235.707031 193.625 C 235.488281 187.652344 239.691406 181.804688 245.414062 180.0625 C 249.210938 178.816406 253.195312 177.976562 257.144531 177.445312 C 259.539062 177.011719 261.90625 176.730469 264.269531 176.109375 C 267.972656 175.238281 271.613281 175.144531 274.816406 173.058594 C 276.964844 171.503906 278.394531 168.859375 278.769531 166.246094 C 279.328125 162.699219 279.546875 159.121094 279.359375 155.542969 C 279.113281 148.417969 278.894531 141.167969 277.867188 134.136719 L 277.367188 134.074219 C 275.316406 134.011719 273.261719 134.417969 271.207031 134.417969 C 271.113281 138.089844 271.925781 141.757812 271.957031 145.398438 C 272.265625 148.855469 272.140625 152.339844 272.390625 155.792969 C 272.390625 158.46875 272.609375 161.082031 272.328125 163.757812 C 272.234375 165.34375 272.171875 166.898438 271.769531 168.457031 C 270.992188 171.007812 268.90625 172.625 266.480469 173.527344 C 263.273438 174.460938 260.101562 174.832031 256.804688 175.175781 C 252.445312 175.671875 248.027344 176.234375 243.765625 177.261719 C 241.183594 177.914062 238.632812 178.972656 236.390625 180.402344 C 232.691406 182.984375 229.796875 186.96875 229.171875 191.511719 C 228.800781 193.6875 229.171875 195.960938 230.074219 197.953125 C 231.257812 200.503906 233.746094 202.371094 236.144531 203.707031 Z M 236.144531 203.707031 " fill-opacity="1" fill-rule="nonzero"/><path fill="#ff8c3e" d="M 147.035156 194.34375 C 144.949219 194.09375 142.894531 193.59375 140.808594 193.410156 C 140.03125 195.429688 140 198.292969 140.65625 200.316406 C 141.027344 201.28125 141.683594 202.460938 142.585938 202.992188 C 143.828125 203.117188 145.074219 203.210938 146.316406 203.457031 C 145.789062 202.058594 144.949219 201.03125 144.855469 199.539062 C 144.792969 198.636719 144.792969 197.640625 145.199219 196.832031 C 145.664062 195.835938 146.378906 195.152344 147.035156 194.34375 Z M 147.035156 194.34375 " fill-opacity="1" fill-rule="nonzero"/><path fill="#ff8c3e" d="M 207.707031 212.324219 C 208.980469 212.140625 210.164062 211.484375 211.34375 210.988281 C 211.5625 210.925781 211.6875 210.738281 211.75 210.457031 C 211.53125 207.597656 211.5 204.765625 211.222656 201.902344 C 209.851562 201.683594 208.484375 201.1875 207.113281 201.125 C 207.175781 203.085938 207.238281 205.046875 207.394531 207.003906 C 207.519531 208.808594 207.457031 210.519531 207.707031 212.324219 Z M 207.707031 212.324219 " fill-opacity="1" fill-rule="nonzero"/><path fill="#ff8c3e" d="M 227.339844 204.765625 C 228.210938 205.417969 228.988281 204.421875 228.988281 203.582031 C 229.050781 202.742188 228.179688 201.839844 227.367188 202.460938 C 226.558594 202.929688 226.496094 204.265625 227.339844 204.765625 Z M 227.339844 204.765625 " fill-opacity="1" fill-rule="nonzero"/><path fill="#ff8c3e" d="M 219.839844 209.183594 C 218.222656 209.773438 216.726562 210.675781 215.171875 211.390625 C 214.082031 211.953125 213.027344 212.355469 212.03125 213.042969 C 212.996094 213.195312 213.929688 213.320312 214.890625 213.445312 C 216.480469 212.203125 218.875 211.050781 219.839844 209.183594 Z M 219.839844 209.183594 " fill-opacity="1" fill-rule="nonzero"/><path fill="#ff8c3e" d="M 224.847656 232.890625 C 224.753906 232.644531 224.664062 232.425781 224.570312 232.175781 C 223.011719 233.980469 221.085938 234.042969 218.9375 234.695312 C 219.371094 235.257812 219.621094 235.441406 220.335938 235.472656 C 222.109375 235.039062 223.730469 234.449219 224.847656 232.890625 Z M 224.847656 232.890625 " fill-opacity="1" fill-rule="nonzero"/><path fill="#ff8c3e" d="M 211.5 276.203125 C 211.5 276.574219 211.46875 276.917969 211.46875 277.292969 C 217.476562 278.628906 223.480469 276.917969 228.738281 274.023438 C 228.800781 270.042969 227.992188 266.058594 227.679688 262.078125 C 227.183594 256.539062 227.277344 250.75 226.4375 245.246094 C 226 242.257812 225.71875 239.050781 224.816406 236.191406 C 224.691406 235.785156 224.570312 235.414062 224.445312 235.007812 C 223.355469 235.566406 222.296875 236.222656 221.207031 236.78125 C 221.175781 238.148438 221.175781 239.550781 221.054688 240.917969 C 220.867188 243.875 221.023438 246.863281 220.679688 249.785156 C 220.429688 254.082031 219.996094 258.375 219.714844 262.699219 L 219.527344 262.667969 C 219.621094 254.890625 219.621094 247.140625 219.714844 239.363281 C 219.746094 238.679688 219.683594 238.027344 219.589844 237.339844 C 218.875 237.371094 218.222656 237.496094 217.539062 237.714844 C 217.445312 244.902344 217.476562 252.089844 217.226562 259.277344 C 217.195312 262.699219 217.164062 266.121094 217.070312 269.542969 C 216.820312 271.941406 216.851562 274.179688 217.226562 276.542969 C 215.296875 276.574219 213.398438 276.511719 211.5 276.203125 Z M 211.5 276.203125 " fill-opacity="1" fill-rule="nonzero"/><path fill="#ff8c3e" d="M 203.316406 296.332031 C 200.488281 296.175781 197.75 295.554688 194.917969 295.554688 C 193.546875 295.523438 192.210938 295.242188 190.871094 294.996094 C 189.253906 294.621094 187.730469 294.34375 186.390625 293.285156 C 186.019531 292.972656 185.988281 293.003906 185.550781 293.191406 C 180.386719 295.617188 175.191406 297.980469 169.996094 300.410156 C 171.675781 301.996094 173.945312 303.023438 176.0625 303.957031 C 182.441406 306.601562 189.597656 307.8125 196.472656 308.4375 C 197.84375 308.625 199.148438 308.625 200.519531 308.683594 C 206.460938 309.121094 212.621094 308.714844 218.5625 308.21875 C 224.910156 307.441406 231.164062 306.414062 237.261719 304.546875 C 242.023438 303.117188 246.972656 301.1875 251.015625 298.292969 C 253.101562 296.800781 255.152344 294.902344 256.085938 292.476562 C 256.832031 290.453125 256.398438 288.210938 255.121094 286.5 C 252.757812 283.234375 248.804688 281.273438 245.226562 279.59375 C 243.859375 278.878906 242.460938 278.753906 240.933594 278.410156 C 237.605469 277.789062 234.308594 277.074219 230.945312 276.667969 C 230.386719 276.605469 229.828125 276.328125 229.265625 276.265625 C 228.363281 276.636719 227.398438 277.136719 226.527344 277.601562 C 226.34375 278.007812 226.4375 278.441406 226.714844 278.816406 C 227.492188 279.90625 228.363281 281.023438 228.550781 282.394531 C 228.769531 284.386719 228.332031 286.46875 227.617188 288.304688 C 226.375 290.671875 224.164062 292.597656 221.707031 293.625 C 216.105469 296.175781 209.417969 296.738281 203.316406 296.332031 Z M 236.269531 282.019531 C 238.414062 283.265625 240.375 284.695312 241.679688 286.84375 C 243.082031 288.929688 243.300781 291.417969 242.863281 293.8125 C 242.550781 295.152344 241.339844 296.117188 240.3125 296.894531 C 238.632812 298.074219 236.734375 299.132812 234.710938 299.664062 C 235.894531 298.542969 237.199219 297.640625 238.132812 296.269531 C 239.503906 294.496094 240.1875 292.289062 239.722656 290.046875 C 239.128906 287.714844 237.792969 285.753906 235.988281 284.167969 C 234.371094 282.550781 231.941406 281.273438 230.761719 279.3125 C 232.691406 279.8125 234.523438 280.992188 236.269531 282.019531 Z M 223.976562 295.804688 C 226.4375 294.558594 228.488281 292.566406 229.890625 290.171875 C 230.730469 288.679688 230.976562 287.125 231.226562 285.472656 C 231.695312 285.472656 231.910156 285.785156 232.253906 286.035156 C 233.53125 287.15625 234.804688 288.679688 235.179688 290.359375 C 235.242188 292.101562 234.152344 293.90625 232.90625 295.027344 C 230.574219 296.925781 227.648438 298.167969 224.816406 299.132812 C 220.554688 300.441406 215.917969 301.496094 211.4375 301.40625 C 208.203125 301.40625 204.96875 300.9375 201.792969 300.410156 C 198.558594 299.664062 195.382812 299.226562 192.460938 297.917969 C 193.269531 297.980469 194.046875 298.136719 194.824219 298.292969 C 200.425781 299.414062 206.085938 299.539062 211.75 299.226562 C 215.886719 298.820312 220.214844 297.796875 223.976562 295.804688 Z M 223.976562 295.804688 " fill-opacity="1" fill-rule="nonzero"/><path fill="#ff8c3e" d="M 260.289062 284.449219 C 258.546875 283.609375 256.773438 282.738281 254.96875 282.050781 C 253.628906 281.585938 252.261719 281.085938 250.890625 280.902344 L 250.796875 280.902344 L 250.859375 280.933594 L 250.921875 280.960938 C 253.597656 282.300781 256.367188 284.292969 257.796875 287 C 259.074219 289.394531 258.949219 292.257812 257.613281 294.621094 C 255.714844 298.074219 252.074219 300.59375 248.683594 302.492188 C 241.898438 306.039062 234.214844 308.1875 226.714844 309.496094 C 222.359375 310.304688 218.003906 310.707031 213.585938 311.082031 C 202.261719 311.546875 191.246094 311.207031 180.292969 308.0625 C 176 306.789062 171.300781 304.953125 167.910156 301.902344 C 167.507812 301.496094 167.039062 301.839844 166.605469 301.964844 C 165.015625 302.679688 163.398438 303.363281 161.78125 304.019531 C 160.503906 304.640625 159.292969 305.292969 157.890625 305.574219 C 156.523438 305.945312 155.152344 305.730469 153.785156 306.101562 C 154.6875 306.878906 155.902344 307.347656 156.957031 307.84375 C 164.175781 311.082031 172.203125 312.855469 180.015625 314.066406 C 191.246094 315.808594 202.570312 316.121094 213.898438 315.777344 C 223.199219 315.40625 232.597656 314.316406 241.710938 312.386719 C 247.21875 311.175781 252.789062 309.648438 257.984375 307.441406 C 260.847656 306.226562 263.617188 304.796875 266.105469 302.929688 C 267.566406 301.839844 268.875 300.59375 269.839844 299.039062 C 270.585938 297.949219 271.054688 296.707031 271.023438 295.398438 C 271.144531 293.316406 269.839844 291.386719 268.46875 289.953125 C 266.230469 287.589844 263.179688 285.847656 260.289062 284.449219 Z M 177.183594 312.355469 C 176.496094 312.292969 175.8125 312.171875 175.128906 312.015625 C 169.996094 310.957031 164.921875 309.464844 160.101562 307.472656 C 159.601562 307.285156 159.199219 307.035156 158.792969 306.695312 C 161.035156 305.886719 163.242188 304.984375 165.265625 303.675781 C 165.765625 303.394531 166.292969 302.960938 166.882812 302.867188 C 167.785156 303.394531 168.5 304.144531 169.371094 304.734375 C 172.359375 306.847656 175.597656 308 179.050781 309.183594 C 178.457031 310.273438 177.710938 311.207031 177.183594 312.355469 Z M 182.660156 313.320312 C 181.539062 313.164062 180.449219 313.011719 179.359375 312.761719 C 179.828125 311.734375 180.355469 310.644531 181.101562 309.773438 C 181.972656 309.992188 182.8125 310.179688 183.683594 310.335938 C 183.3125 311.328125 182.90625 312.292969 182.660156 313.320312 Z M 230.167969 313.320312 C 229.390625 312.355469 228.519531 311.515625 227.554688 310.707031 C 228.613281 310.488281 229.703125 310.273438 230.761719 310.054688 C 231.507812 310.957031 232.160156 311.828125 232.222656 313.042969 C 231.539062 313.195312 230.855469 313.289062 230.167969 313.320312 Z M 247.03125 309.835938 C 242.863281 311.019531 238.632812 312.046875 234.339844 312.667969 C 234.058594 311.515625 233.53125 310.550781 232.90625 309.585938 C 238.351562 308.3125 243.796875 306.351562 248.527344 303.300781 C 248.898438 303.988281 249.179688 304.703125 249.707031 305.292969 C 250.703125 306.445312 251.980469 307.097656 253.347656 307.722656 C 251.296875 308.5625 249.148438 309.214844 247.03125 309.835938 Z M 247.03125 309.835938 " fill-opacity="1" fill-rule="nonzero"/><path fill="#ff8c3e" d="M 156.054688 303.300781 C 155.683594 302.679688 154.5 301.933594 153.785156 301.777344 C 149.554688 301.375 145.320312 301 141.089844 300.347656 C 131.601562 298.882812 122.203125 296.925781 112.902344 294.496094 C 110.039062 293.8125 107.238281 292.878906 104.34375 292.351562 C 100.984375 291.695312 97.75 290.671875 94.390625 290.015625 C 92.304688 289.582031 90.28125 289.019531 88.226562 288.429688 C 84.558594 287.339844 81.289062 285.535156 78.179688 283.296875 C 79.234375 284.976562 80.699219 286.222656 82.503906 287.03125 C 88.074219 289.613281 93.703125 290.824219 99.617188 292.226562 C 106.179688 293.75 112.652344 295.773438 119.1875 297.421875 C 127.710938 299.539062 136.332031 301.40625 145.042969 302.523438 C 148.746094 302.929688 152.414062 303.394531 156.054688 303.300781 Z M 156.054688 303.300781 " fill-opacity="1" fill-rule="nonzero"/><path fill="#9b7962" d="M 250.300781 59.867188 C 253.691406 60.054688 257.082031 60.335938 260.472656 60.429688 C 260.660156 58.25 261.128906 56.164062 262 54.144531 C 260.910156 53.800781 259.820312 53.832031 258.699219 53.769531 C 254.035156 53.613281 249.679688 53.117188 245.011719 53.957031 C 242.613281 54.390625 239.90625 54.953125 238.011719 56.570312 C 237.109375 57.378906 236.207031 58.40625 235.832031 59.558594 C 240.65625 59.527344 245.476562 59.496094 250.300781 59.867188 Z M 250.300781 59.867188 " fill-opacity="1" fill-rule="nonzero"/><path fill="#9b7962" d="M 231.910156 102.339844 C 232.410156 102.402344 232.378906 101.839844 232.503906 101.53125 C 233.25 97.828125 234.523438 94.21875 235.613281 90.609375 C 237.511719 85.132812 239.066406 79.78125 241.308594 74.492188 C 238.757812 74.523438 236.144531 74.429688 233.59375 74.554688 C 232.128906 77.726562 230.761719 81.027344 229.796875 84.386719 C 227.898438 90.296875 226.25 96.269531 224.695312 102.246094 C 227.089844 102.464844 229.515625 102.339844 231.910156 102.339844 Z M 231.910156 102.339844 " fill-opacity="1" fill-rule="nonzero"/><path fill="#9b7962" d="M 215.140625 102.554688 C 216.976562 102.492188 218.8125 102.523438 220.679688 102.402344 C 222.578125 94.652344 224.847656 87.03125 227.367188 79.46875 C 227.960938 77.820312 228.488281 76.140625 229.234375 74.554688 C 227.246094 74.585938 225.253906 74.617188 223.261719 74.710938 C 222.578125 74.679688 222.578125 75.207031 222.328125 75.675781 C 221.488281 77.570312 220.679688 79.5 219.996094 81.429688 C 217.722656 88.304688 215.734375 95.277344 213.929688 102.308594 C 214.269531 102.523438 214.644531 102.585938 215.140625 102.554688 Z M 215.140625 102.554688 " fill-opacity="1" fill-rule="nonzero"/><path fill="#9b7962" d="M 251.699219 74.742188 C 249.554688 74.585938 247.40625 74.585938 245.257812 74.585938 C 244.980469 76.015625 244.234375 77.167969 243.734375 78.503906 C 241.929688 82.644531 240.777344 87.09375 239.441406 91.386719 C 238.414062 94.871094 237.480469 98.355469 236.546875 101.839844 L 236.671875 102.339844 C 238.820312 102.402344 240.996094 102.402344 243.144531 102.402344 C 243.640625 100.597656 244.046875 98.792969 244.574219 97.019531 C 246.753906 89.738281 248.960938 82.394531 251.667969 75.269531 C 251.667969 75.113281 251.667969 74.925781 251.699219 74.742188 Z M 251.699219 74.742188 " fill-opacity="1" fill-rule="nonzero"/><path fill="#9b7962" d="M 262.621094 75.425781 C 260.472656 75.238281 258.296875 75.207031 256.148438 74.988281 C 256.023438 75.207031 255.902344 75.425781 255.808594 75.644531 C 254.90625 77.726562 253.972656 79.8125 253.195312 81.957031 C 251.046875 88.523438 249.117188 95.152344 247.375 101.808594 L 247.40625 102.492188 C 249.398438 102.585938 251.453125 102.648438 253.441406 102.648438 C 253.878906 102.308594 253.910156 101.40625 254.097656 100.90625 C 256.429688 92.722656 258.761719 84.789062 262.09375 76.917969 C 262.308594 76.453125 262.433594 75.921875 262.621094 75.425781 Z M 262.621094 75.425781 " fill-opacity="1" fill-rule="nonzero"/><path fill="#9b7962" d="M 202.664062 102.898438 C 204.8125 102.835938 206.957031 102.804688 209.136719 102.710938 C 210.941406 95.335938 212.902344 88.058594 215.734375 80.996094 C 216.417969 79.191406 217.226562 77.417969 217.910156 75.644531 L 217.257812 75.550781 C 215.046875 76.078125 212.464844 76.605469 210.753906 78.164062 C 208.980469 79.71875 208.203125 81.957031 207.363281 84.105469 C 205.183594 90.078125 203.566406 96.425781 202.011719 102.554688 C 202.199219 102.804688 202.414062 102.929688 202.664062 102.898438 Z M 202.664062 102.898438 " fill-opacity="1" fill-rule="nonzero"/><path fill="#9b7962" d="M 270.089844 87.433594 C 271.175781 84.167969 272.453125 80.933594 273.605469 77.695312 C 271.582031 77.105469 269.527344 76.699219 267.476562 76.234375 C 263.648438 84.882812 260.566406 93.75 257.953125 102.835938 C 260.320312 102.835938 262.746094 102.992188 265.109375 102.742188 C 266.480469 97.578125 268.378906 92.507812 270.089844 87.433594 Z M 270.089844 87.433594 " fill-opacity="1" fill-rule="nonzero"/><path fill="#9b7962" d="M 270.027344 102.898438 C 271.832031 102.960938 273.636719 102.960938 275.441406 103.023438 C 276.03125 101.40625 276.40625 99.726562 276.964844 98.105469 C 278.769531 92.722656 280.542969 87.25 282.691406 81.988281 C 282.78125 81.648438 283.15625 81.085938 282.90625 80.777344 C 281.476562 80.09375 279.890625 79.75 278.425781 79.128906 C 274.941406 86.75 272.265625 94.558594 269.777344 102.554688 Z M 270.027344 102.898438 " fill-opacity="1" fill-rule="nonzero"/><path fill="#9b7962" d="M 294.917969 121.941406 C 293.671875 121.316406 292.085938 121.253906 290.71875 121.132812 C 286.984375 120.882812 283.25 120.757812 279.515625 120.570312 C 274.601562 120.230469 269.683594 120.199219 264.769531 120.261719 C 265.484375 120.601562 266.199219 120.945312 266.851562 121.378906 C 267.628906 121.910156 268.066406 122.59375 268.75 123.214844 C 269.808594 123.371094 270.960938 123.183594 272.046875 123.183594 C 276.808594 123.089844 281.601562 123.246094 286.359375 123.527344 C 289.90625 123.683594 293.546875 124.304688 297.09375 124.085938 C 296.722656 123.027344 295.882812 122.4375 294.917969 121.941406 Z M 294.917969 121.941406 " fill-opacity="1" fill-rule="nonzero"/><path fill="#9b7962" d="M 145.695312 163.011719 C 142.179688 163.789062 138.820312 164.785156 135.582031 166.371094 C 135.957031 166.652344 136.269531 166.835938 136.734375 166.898438 C 138.289062 167.273438 139.847656 167.585938 141.433594 167.894531 C 142.398438 167.023438 143.269531 166.152344 144.386719 165.46875 C 145.539062 164.722656 146.847656 164.222656 147.996094 163.507812 C 147.21875 163.320312 146.441406 163.164062 145.695312 163.011719 Z M 145.695312 163.011719 " fill-opacity="1" fill-rule="nonzero"/><path fill="#9b7962" d="M 153.972656 166.714844 C 154.84375 165.871094 155.964844 165.25 156.957031 164.503906 C 155.992188 164.347656 155.03125 164.160156 154.097656 164.007812 C 151.265625 164.753906 148.558594 165.996094 146.101562 167.554688 C 145.632812 167.832031 145.320312 168.207031 145.011719 168.640625 C 147.25 169.015625 149.429688 169.511719 151.667969 169.824219 C 152.386719 168.796875 153.070312 167.585938 153.972656 166.714844 Z M 153.972656 166.714844 " fill-opacity="1" fill-rule="nonzero"/><path fill="#9b7962" d="M 154.96875 170.011719 L 155.0625 170.507812 C 156.925781 170.820312 158.730469 171.222656 160.597656 171.503906 C 161.75 169.761719 163.089844 168.175781 164.769531 166.929688 C 165.328125 166.527344 165.855469 166.152344 166.355469 165.65625 C 164.582031 165.34375 162.777344 165.21875 161.003906 164.910156 C 159.664062 165.5625 158.328125 166.121094 157.113281 167.054688 C 156.179688 167.800781 155.464844 168.921875 154.96875 170.011719 Z M 154.96875 170.011719 " fill-opacity="1" fill-rule="nonzero"/><path fill="#9b7962" d="M 165.140625 172.21875 C 166.914062 172.84375 168.875 172.9375 170.710938 173.308594 C 171.644531 171.785156 172.515625 170.320312 173.851562 169.109375 C 174.695312 168.238281 175.78125 167.675781 176.558594 166.742188 C 174.695312 166.589844 172.828125 166.308594 170.960938 166.121094 C 168.78125 167.304688 166.230469 169.109375 165.328125 171.503906 Z M 165.140625 172.21875 " fill-opacity="1" fill-rule="nonzero"/><path fill="#9b7962" d="M 175.503906 171.410156 C 174.878906 172.09375 174.570312 172.96875 174.226562 173.839844 C 176.03125 174.335938 178.054688 174.648438 179.921875 174.617188 C 180.511719 173.652344 180.976562 172.625 181.726562 171.722656 C 182.84375 170.230469 184.339844 169.203125 185.613281 167.863281 C 184.058594 167.675781 182.472656 167.304688 180.917969 167.398438 C 178.925781 168.457031 176.996094 169.761719 175.503906 171.410156 Z M 175.503906 171.410156 " fill-opacity="1" fill-rule="nonzero"/><path fill="#9b7962" d="M 183.652344 175.113281 C 185.925781 175.113281 188.257812 175.582031 190.53125 175.582031 C 191.089844 174.988281 191.371094 174.148438 191.929688 173.558594 C 193.671875 171.535156 195.789062 170.601562 197.964844 169.265625 C 195.382812 169.015625 192.832031 168.734375 190.25 168.394531 C 188.445312 169.296875 186.640625 170.382812 185.179688 171.785156 C 184.277344 172.59375 183.964844 173.960938 183.652344 175.113281 Z M 183.652344 175.113281 " fill-opacity="1" fill-rule="nonzero"/><path fill="#9b7962" d="M 212.902344 172.375 C 214.082031 171.941406 215.296875 171.535156 216.511719 171.132812 C 212.746094 170.570312 208.886719 170.570312 205.121094 169.886719 C 202.167969 170.695312 198.960938 171.566406 196.378906 173.308594 C 195.632812 173.777344 195.230469 174.523438 194.824219 175.269531 L 194.699219 175.921875 C 198.058594 176.421875 201.542969 176.515625 204.9375 176.917969 C 205.871094 175.394531 207.300781 174.398438 208.886719 173.652344 C 210.164062 172.996094 211.5625 172.90625 212.902344 172.375 Z M 212.902344 172.375 " fill-opacity="1" fill-rule="nonzero"/><path fill="#9b7962" d="M 228.085938 172.4375 C 227.339844 171.941406 226.527344 172.035156 225.65625 171.910156 C 224.320312 171.816406 222.949219 171.441406 221.675781 171.878906 C 219.933594 172.34375 218.222656 172.964844 216.542969 173.558594 C 214.582031 174.210938 212.558594 174.894531 210.691406 175.796875 C 209.914062 176.203125 209.167969 176.542969 208.609375 177.292969 C 210.164062 177.445312 211.71875 177.539062 213.273438 177.726562 C 214.300781 177.820312 215.265625 177.976562 216.292969 177.851562 C 218.222656 175.363281 220.929688 174.335938 223.851562 173.464844 C 225.253906 173.027344 226.652344 172.65625 228.085938 172.4375 Z M 228.085938 172.4375 " fill-opacity="1" fill-rule="nonzero"/><path fill="#9b7962" d="M 236.328125 174.085938 C 233.59375 174.429688 230.917969 175.019531 228.242188 175.644531 C 225.875 176.171875 223.574219 177.167969 221.457031 178.320312 C 221.832031 178.410156 222.203125 178.503906 222.609375 178.566406 C 225.097656 178.785156 227.554688 179.003906 230.042969 179.191406 C 231.320312 179.28125 232.503906 179.5 233.777344 179.375 C 234.277344 178.910156 234.804688 178.503906 235.367188 178.070312 C 236.238281 176.886719 237.699219 176.109375 238.914062 175.363281 C 240.34375 174.523438 241.898438 174.179688 243.425781 173.527344 C 240.964844 173.183594 238.757812 173.746094 236.328125 174.085938 Z M 236.328125 174.085938 " fill-opacity="1" fill-rule="nonzero"/><path fill="#9b7962" d="M 165.980469 217.335938 C 161.191406 216.433594 156.429688 215.839844 151.667969 214.691406 C 150.828125 214.472656 149.988281 214.222656 149.117188 214.128906 C 149.738281 215.375 150.640625 216.402344 151.296875 217.644531 C 152.476562 219.824219 153.878906 221.847656 155.496094 223.714844 C 156.148438 224.523438 157.425781 224.800781 158.359375 225.207031 C 160.910156 226.265625 163.585938 226.949219 166.292969 227.507812 C 173.074219 228.722656 179.984375 229.003906 186.828125 228.441406 C 190.59375 228.195312 194.355469 227.820312 198.058594 227.105469 C 200.550781 226.792969 202.570312 224.398438 204.1875 222.65625 C 198.621094 222.035156 193.050781 221.753906 187.480469 220.914062 C 180.261719 219.949219 173.136719 218.640625 165.980469 217.335938 Z M 165.980469 217.335938 " fill-opacity="1" fill-rule="nonzero"/><path fill="#9b7962" d="M 180.605469 230.652344 C 177.804688 230.808594 175.066406 230.527344 172.296875 230.464844 C 176.0625 231.460938 179.859375 232.582031 183.714844 233.203125 C 186.796875 233.640625 190.15625 233.792969 192.894531 232.050781 C 194.265625 231.085938 195.601562 230 196.785156 228.816406 C 195.167969 228.972656 193.578125 229.40625 191.960938 229.625 C 188.195312 230.183594 184.402344 230.558594 180.605469 230.652344 Z M 180.605469 230.652344 " fill-opacity="1" fill-rule="nonzero"/><path fill="#ffe8a9" d="M 134.152344 122.25 C 133.53125 122.21875 132.875 122.21875 132.222656 122.1875 C 132.097656 121.132812 132.066406 120.105469 132.285156 119.046875 C 132.535156 119.328125 132.78125 119.636719 133 119.917969 C 134.464844 120.074219 135.894531 120.230469 137.324219 120.445312 C 138.726562 120.664062 140.09375 121.039062 141.527344 121.039062 C 141.558594 120.445312 141.589844 119.824219 141.621094 119.234375 C 138.601562 118.734375 135.582031 118.300781 132.566406 117.707031 C 132.535156 118.019531 132.535156 118.300781 132.503906 118.609375 L 132.191406 118.609375 C 132.191406 118.050781 132.191406 117.492188 132.191406 116.929688 C 132.875 116.898438 133.5625 116.867188 134.246094 116.835938 C 133.53125 116.773438 132.8125 116.742188 132.097656 116.835938 C 132.097656 118.640625 131.972656 120.445312 132.097656 122.21875 C 132.8125 122.28125 133.5 122.28125 134.152344 122.25 Z M 134.152344 122.25 " fill-opacity="1" fill-rule="nonzero"/><path fill="#ffe8a9" d="M 158.109375 121.039062 C 158.234375 120.476562 158.328125 119.949219 158.421875 119.390625 C 156.367188 119.390625 154.34375 119.359375 152.292969 119.171875 C 149.894531 119.171875 147.5625 118.953125 145.167969 118.859375 C 145.199219 119.574219 145.261719 120.292969 145.289062 121.007812 C 149.585938 121.101562 153.816406 121.132812 158.109375 121.039062 Z M 158.109375 121.039062 " fill-opacity="1" fill-rule="nonzero"/><path fill="#ffe8a9" d="M 243.144531 127.476562 C 245.199219 127.664062 247.15625 128.257812 249.210938 128.226562 C 249.148438 127.230469 249.429688 126.203125 249.335938 125.238281 C 247.8125 124.894531 246.070312 125.050781 244.511719 124.988281 C 244.542969 124.863281 244.574219 124.710938 244.636719 124.585938 C 242.925781 124.832031 241.183594 124.554688 239.472656 124.710938 C 239.316406 124.800781 239.160156 124.894531 239.003906 124.988281 C 239.222656 125.671875 239.285156 126.328125 239.253906 127.042969 C 240.53125 127.292969 241.835938 127.261719 243.144531 127.476562 Z M 243.144531 127.476562 " fill-opacity="1" fill-rule="nonzero"/><path fill="#ffe8a9" d="M 180.015625 142.132812 C 180.292969 142.164062 180.574219 142.195312 180.824219 142.257812 C 181.820312 142.628906 183.15625 142.722656 184.058594 143.191406 C 184.308594 144.933594 184.214844 146.769531 184.277344 148.511719 C 184.371094 150.347656 184.496094 152.214844 184.554688 154.050781 C 184.929688 154.019531 185.304688 153.988281 185.644531 153.957031 C 185.367188 150.066406 184.773438 146.207031 184.527344 142.320312 C 184.089844 136.625 183.683594 130.933594 182.691406 125.300781 L 182.097656 125.300781 C 182.472656 128.535156 183.03125 131.773438 183.21875 135.007812 C 181.851562 134.976562 180.480469 134.820312 179.144531 134.695312 C 179.453125 137.15625 179.515625 139.707031 180.015625 142.132812 Z M 180.015625 142.132812 " fill-opacity="1" fill-rule="nonzero"/><path fill="#ffe8a9" d="M 264.082031 126.546875 C 264.144531 126.140625 264.207031 125.734375 264.238281 125.332031 C 260.722656 125.332031 257.175781 125.144531 253.660156 125.300781 C 254.375 125.859375 255.371094 126.078125 256.242188 126.234375 C 258.792969 126.699219 261.46875 126.667969 264.082031 126.546875 Z M 264.082031 126.546875 " fill-opacity="1" fill-rule="nonzero"/><path fill="#ffe8a9" d="M 188.132812 142.539062 C 188.351562 138.523438 188.601562 134.511719 188.882812 130.496094 C 189.066406 129.066406 189.222656 127.632812 189.222656 126.203125 C 187.917969 126.265625 186.609375 126.484375 185.304688 126.605469 C 185.675781 129.375 186.390625 132.082031 186.796875 134.820312 C 187.292969 137.402344 187.605469 139.984375 188.132812 142.539062 Z M 188.132812 142.539062 " fill-opacity="1" fill-rule="nonzero"/><path fill="#ffe8a9" d="M 279.390625 155.542969 C 279.140625 148.417969 278.925781 141.167969 277.898438 134.136719 L 277.398438 134.074219 C 278.054688 138.460938 278.425781 142.847656 278.675781 147.265625 C 278.769531 150.441406 278.644531 153.613281 278.394531 156.757812 C 276.902344 156.789062 275.441406 156.539062 273.976562 156.132812 C 273.261719 155.917969 272.640625 155.542969 272.578125 154.734375 C 272.453125 153.023438 272.578125 151.28125 272.515625 149.539062 C 272.453125 151.46875 272.484375 153.394531 272.515625 155.324219 L 272.390625 155.761719 C 272.390625 158.4375 272.609375 161.050781 272.328125 163.726562 C 272.234375 165.3125 272.171875 166.867188 271.769531 168.425781 C 272.046875 168.019531 272.296875 167.492188 272.703125 167.210938 C 274.195312 166.464844 275.71875 166.589844 277.308594 166.960938 C 276.839844 169.574219 274.753906 172.09375 272.203125 172.9375 C 268.78125 174.210938 265.359375 175.457031 261.8125 176.359375 C 259.539062 177.136719 257.050781 177.136719 254.65625 177.417969 C 251.855469 177.757812 248.992188 178.226562 246.285156 179.035156 C 242.925781 180.03125 239.90625 182.238281 237.574219 184.820312 C 236.453125 184.355469 235.863281 183.578125 235.054688 182.769531 C 233.933594 183.640625 233.09375 184.945312 232.222656 186.097656 C 230.261719 188.929688 229.390625 192.628906 230.042969 196.023438 C 231.070312 195.554688 232.035156 195.214844 233.1875 195.304688 C 234.027344 195.429688 235.210938 195.304688 235.367188 196.394531 C 236.765625 201.375 241.621094 204.640625 246.347656 205.980469 L 246.597656 206.039062 C 245.105469 205.292969 243.578125 204.515625 242.148438 203.644531 C 241.214844 202.898438 240.34375 202.121094 239.410156 201.40625 C 237.386719 199.289062 235.863281 196.613281 235.738281 193.625 C 235.519531 187.652344 239.722656 181.804688 245.445312 180.0625 C 249.242188 178.816406 253.226562 177.976562 257.175781 177.445312 C 259.570312 177.011719 261.9375 176.730469 264.300781 176.109375 C 268.003906 175.238281 271.644531 175.144531 274.847656 173.058594 C 276.996094 171.503906 278.425781 168.859375 278.800781 166.246094 C 279.359375 162.699219 279.578125 159.121094 279.390625 155.542969 Z M 279.390625 155.542969 " fill-opacity="1" fill-rule="nonzero"/><path fill="#ffe8a9" d="M 285.179688 155.292969 C 284.339844 154.609375 283.714844 153.800781 283.0625 152.960938 C 282.96875 154.207031 283.808594 155.078125 283.652344 156.289062 C 283.59375 161.238281 283.777344 166.464844 281.539062 171.039062 C 281.039062 172.25 280.167969 173.214844 279.515625 174.335938 C 279.859375 175.269531 280.855469 175.984375 281.507812 176.667969 C 283.34375 178.347656 285.644531 180.371094 288.132812 180.839844 C 289.222656 176.140625 289.566406 171.378906 289.628906 166.558594 C 289.96875 163.664062 289.785156 160.675781 289.875 157.753906 C 288.351562 157.035156 286.484375 156.476562 285.179688 155.292969 Z M 285.179688 155.292969 " fill-opacity="1" fill-rule="nonzero"/><path fill="#ffe8a9" d="M 278.332031 175.238281 C 278.363281 176.824219 279.234375 178.441406 279.984375 179.8125 C 281.320312 182.238281 283.375 184.105469 285.707031 185.535156 C 286.113281 185.785156 286.546875 185.910156 286.984375 186.066406 C 287.199219 185.289062 287.417969 184.480469 287.480469 183.671875 C 283.375 182.269531 280.324219 178.972656 278.332031 175.238281 Z M 278.332031 175.238281 " fill-opacity="1" fill-rule="nonzero"/><path fill="#ffe8a9" d="M 181.132812 286.34375 C 180.261719 288.585938 179.328125 290.792969 178.613281 293.097656 C 178.332031 293.316406 178.023438 293.53125 177.710938 293.71875 C 179.921875 292.722656 182.128906 291.695312 184.308594 290.640625 C 185.054688 288.398438 185.832031 286.253906 186.328125 283.917969 C 187.171875 283.296875 188.351562 283.046875 189.285156 282.550781 C 192.460938 281.054688 195.726562 279.875 198.898438 278.410156 C 200.175781 277.757812 201.605469 276.917969 202.230469 275.550781 C 202.726562 274.648438 202.382812 273.652344 202.726562 272.625 C 203.785156 269.328125 204.5 265.839844 205.339844 262.480469 C 206.148438 259.433594 206.804688 256.351562 207.488281 253.273438 C 207.765625 252.121094 207.859375 250.9375 208.359375 249.910156 C 209.136719 252.835938 209.851562 255.730469 210.785156 258.59375 C 211.222656 259.898438 210.722656 261.050781 210.503906 262.324219 C 209.757812 266.433594 208.980469 270.507812 208.203125 274.617188 C 207.984375 276.203125 207.644531 277.789062 207.613281 279.375 C 208.015625 279.003906 208.328125 278.816406 208.359375 278.257812 C 211.78125 259.585938 215.359375 240.917969 218.84375 222.25 C 218.8125 222.0625 218.78125 221.847656 218.75 221.660156 C 218.625 222.6875 218.347656 223.683594 218.066406 224.710938 C 216.726562 230.0625 215.734375 235.472656 214.582031 240.886719 C 213.554688 238.710938 212.683594 236.5 211.53125 234.386719 C 212.433594 230.839844 213.242188 227.292969 214.113281 223.746094 C 214.582031 221.660156 215.046875 219.574219 216.292969 217.800781 C 217.628906 216.277344 219.683594 215.40625 221.207031 214.007812 C 223.480469 211.953125 225.066406 209.058594 225.503906 205.980469 C 224.878906 204.890625 224.722656 203.707031 225.316406 202.554688 C 225.6875 201.714844 226.589844 201.46875 226.652344 200.503906 C 225.625 200.566406 224.753906 200.78125 224.101562 201.621094 C 223.167969 202.898438 223.355469 204.203125 223.542969 205.699219 C 223.261719 208.03125 222.078125 210.304688 220.492188 212.015625 C 218.46875 214.066406 215.390625 215 214.269531 217.863281 C 212.871094 224.769531 211.40625 231.742188 209.945312 238.648438 C 207.332031 250.625 204.53125 262.542969 201.886719 274.523438 C 201.699219 275.082031 201.761719 275.765625 201.109375 276.015625 C 197.71875 277.601562 194.234375 279.035156 190.871094 280.714844 C 188.789062 281.773438 186.640625 282.675781 184.527344 283.699219 C 181.132812 285.351562 177.617188 286.6875 174.195312 288.304688 C 169.15625 290.671875 163.867188 292.816406 159.042969 295.554688 C 158.390625 295.898438 158.140625 296.550781 157.953125 297.203125 C 157.675781 298.292969 157.675781 299.476562 157.738281 300.59375 L 158.390625 301.0625 C 158.917969 300.003906 158.390625 298.605469 158.761719 297.453125 C 158.886719 296.832031 159.449219 296.707031 159.914062 296.425781 C 162.1875 295.367188 164.457031 294.3125 166.757812 293.285156 C 171.300781 291.324219 175.597656 288.898438 180.046875 286.71875 C 180.386719 286.59375 180.761719 286.46875 181.132812 286.34375 Z M 209.664062 243.71875 C 210.660156 246.300781 211.34375 249.039062 212.1875 251.683594 C 212.589844 252.773438 212.03125 254.113281 211.84375 255.199219 C 210.878906 252.867188 210.226562 250.410156 209.292969 248.042969 C 208.636719 246.707031 209.324219 245.058594 209.664062 243.71875 Z M 209.664062 243.71875 " fill-opacity="1" fill-rule="nonzero"/><path fill="#ffe8a9" d="M 211.40625 218.207031 C 211.128906 219.015625 210.941406 219.855469 210.628906 220.664062 C 207.394531 220.199219 204.3125 219.296875 201.140625 218.640625 C 197.53125 217.832031 193.859375 217.210938 190.25 216.371094 C 187.574219 215.75 184.867188 215.46875 182.160156 215 C 182.660156 213.945312 183.28125 212.980469 183.964844 212.078125 C 185.675781 212.230469 187.324219 212.667969 189.003906 212.855469 C 196.660156 213.882812 204.34375 214.660156 211.96875 215.871094 C 211.96875 216.371094 211.9375 216.835938 211.78125 217.304688 C 212 216.773438 212.246094 216.277344 212.527344 215.78125 C 211.066406 215.5625 209.757812 214.9375 208.296875 214.90625 C 207.457031 214.847656 206.648438 214.691406 205.808594 214.566406 C 186.921875 211.671875 167.972656 208.871094 149.148438 205.636719 C 147.71875 205.355469 146.253906 205.078125 144.824219 204.828125 C 144.886719 205.046875 144.917969 205.292969 144.980469 205.511719 C 145.445312 205.480469 145.914062 205.511719 146.378906 205.605469 C 153.816406 207.003906 161.253906 208.25 168.71875 209.527344 C 168.160156 210.707031 167.320312 211.703125 166.667969 212.824219 C 163.429688 212.230469 160.164062 211.921875 156.894531 211.359375 C 152.789062 210.832031 148.683594 210.179688 144.542969 209.710938 L 144.542969 210.367188 C 166.605469 213.789062 188.757812 217.398438 210.816406 220.882812 C 211.003906 219.917969 211.160156 219.046875 211.40625 218.207031 Z M 178.675781 214.410156 C 178.300781 214.378906 177.898438 214.378906 177.492188 214.347656 C 177.867188 213.195312 178.644531 212.203125 179.296875 211.207031 C 179.828125 211.332031 180.324219 211.453125 180.824219 211.609375 C 180.105469 212.542969 179.359375 213.476562 178.675781 214.410156 Z M 178.675781 214.410156 " fill-opacity="1" fill-rule="nonzero"/><path fill="#ffe8a9" d="M 226.40625 245.246094 C 225.96875 242.257812 225.6875 239.050781 224.785156 236.191406 C 224.539062 236.40625 224.289062 236.625 224.039062 236.84375 C 224.257812 240.609375 224.257812 244.371094 224.570312 248.105469 C 224.664062 252.773438 224.972656 257.410156 225.003906 262.078125 C 225.347656 266.121094 225.066406 270.199219 225.472656 274.210938 C 226.621094 273.777344 227.429688 272.78125 228.582031 272.4375 C 228.613281 272.964844 228.675781 273.496094 228.707031 273.992188 C 228.769531 270.011719 227.960938 266.027344 227.648438 262.046875 C 227.183594 256.539062 227.277344 250.71875 226.40625 245.246094 Z M 226.40625 245.246094 " fill-opacity="1" fill-rule="nonzero"/><path fill="#ffe8a9" d="M 222.140625 275.394531 C 222.890625 275.332031 223.761719 275.238281 224.226562 274.523438 C 223.699219 267.492188 223.074219 260.398438 222.671875 253.332031 C 222.390625 250.253906 222.234375 247.140625 222.109375 244.0625 C 221.957031 246.117188 222.078125 248.167969 222.046875 250.222656 C 222.078125 258.625 222.140625 267.023438 222.140625 275.394531 Z M 222.140625 275.394531 " fill-opacity="1" fill-rule="nonzero"/><path fill="#ffe8a9" d="M 174.941406 261.984375 C 177.867188 262.480469 180.761719 262.980469 183.683594 263.476562 C 189.566406 264.566406 195.476562 265.40625 201.359375 266.558594 C 201.421875 266.214844 201.484375 265.839844 201.542969 265.5 C 187.667969 263.195312 173.761719 260.832031 159.882812 258.5 C 152.167969 257.191406 144.449219 255.917969 136.765625 254.484375 C 135.800781 254.328125 134.773438 253.894531 133.808594 253.988281 L 133.808594 254.609375 C 141.898438 256.289062 150.050781 257.660156 158.203125 259.089844 C 157.519531 260.894531 156.335938 262.542969 155.433594 264.222656 C 153.316406 264.003906 151.265625 263.382812 149.148438 263.105469 C 146.222656 262.542969 143.300781 262.046875 140.375 261.453125 C 137.949219 261.082031 135.707031 260.398438 133.21875 260.429688 C 132.9375 260.335938 132.660156 260.179688 132.410156 259.992188 C 132.472656 259.585938 132.535156 259.152344 132.597656 258.746094 C 132.472656 259.246094 132.347656 259.773438 132.253906 260.273438 C 133.40625 260.550781 134.585938 260.800781 135.769531 261.019531 C 142.523438 262.230469 149.242188 263.539062 155.992188 264.753906 C 162.464844 265.75 168.8125 267.242188 175.253906 268.394531 C 183.53125 269.980469 191.835938 271.472656 200.113281 273.121094 C 200.207031 272.65625 200.269531 272.15625 200.363281 271.691406 C 200.238281 272.003906 200.113281 272.28125 199.988281 272.59375 C 198.527344 272.53125 197.125 272.125 195.664062 271.878906 C 192.460938 271.191406 189.222656 270.664062 186.019531 270.042969 C 183.714844 269.449219 181.320312 269.203125 178.988281 268.734375 C 176.496094 268.207031 173.976562 267.863281 171.519531 267.242188 C 171.894531 265.839844 173.167969 264.785156 173.792969 263.445312 C 174.132812 263.042969 174.414062 262.046875 174.941406 261.984375 Z M 158.855469 263.351562 C 158.578125 263.851562 158.359375 264.347656 157.890625 264.691406 C 157.582031 264.628906 157.300781 264.566406 157.019531 264.441406 C 157.921875 262.792969 158.824219 261.113281 159.632812 259.402344 C 160.101562 259.339844 160.472656 259.496094 160.910156 259.585938 C 160.257812 260.863281 159.542969 262.109375 158.855469 263.351562 Z M 170.273438 266.089844 C 169.964844 266.433594 169.621094 267.148438 169.0625 266.898438 C 168.78125 266.835938 168.71875 266.621094 168.90625 266.246094 C 169.746094 264.660156 170.742188 263.105469 171.675781 261.578125 C 172.234375 261.546875 172.828125 261.609375 173.417969 261.671875 C 172.578125 263.226562 171.300781 264.597656 170.273438 266.089844 Z M 170.273438 266.089844 " fill-opacity="1" fill-rule="nonzero"/><path fill="#ffe8a9" d="M 157.550781 291.386719 C 153.039062 290.171875 148.464844 288.867188 144.140625 287.09375 C 137.324219 284.480469 130.292969 283.140625 123.292969 281.148438 C 118.128906 279.71875 113.089844 277.976562 107.953125 276.511719 C 103.378906 275.269531 98.777344 274.273438 94.109375 273.433594 C 89.96875 272.6875 85.894531 272.0625 81.664062 272.003906 C 80.480469 272.0625 79.421875 272.003906 78.738281 273.089844 C 85.460938 273.746094 92.148438 274.707031 98.746094 276.109375 C 97.4375 277.664062 96.316406 279.25 95.230469 280.933594 C 98.121094 281.554688 101.015625 282.269531 103.941406 282.890625 C 105 281.210938 106.242188 279.625 107.425781 278.007812 C 108.078125 278.101562 108.699219 278.257812 109.324219 278.410156 C 107.796875 279.90625 106.367188 281.367188 105.246094 283.203125 C 105.902344 283.359375 106.523438 283.484375 107.175781 283.636719 C 107.796875 283.636719 107.921875 283.203125 108.296875 282.796875 C 109.261719 281.492188 110.257812 280.03125 111.5 278.972656 C 112.652344 279.21875 113.773438 279.5625 114.894531 279.90625 C 120.460938 281.585938 125.96875 283.046875 131.445312 285.070312 C 138.601562 287.527344 145.914062 290.296875 153.195312 292.320312 C 154.40625 292.660156 155.652344 292.878906 156.863281 293.285156 C 157.675781 292.753906 158.578125 292.289062 159.449219 291.851562 C 158.824219 291.757812 158.171875 291.605469 157.550781 291.386719 Z M 157.550781 291.386719 " fill-opacity="1" fill-rule="nonzero"/><path fill="#ffe8a9" d="M 251.015625 289.457031 C 250.828125 287.246094 249.398438 285.566406 247.8125 284.167969 C 245.011719 281.863281 241.402344 280.558594 237.949219 279.59375 C 241.152344 281.679688 243.859375 284.355469 245.199219 288.027344 C 245.945312 290.078125 246.347656 292.597656 245.105469 294.558594 C 243.113281 297.640625 240.15625 299.722656 236.796875 301.125 C 240.902344 300.160156 244.824219 298.730469 247.964844 295.804688 C 249.707031 294.21875 251.234375 291.945312 251.015625 289.457031 Z M 251.015625 289.457031 " fill-opacity="1" fill-rule="nonzero"/><path fill="#ffe8a9" d="M 268.4375 297.140625 C 266.449219 294.25 263.027344 292.226562 259.726562 291.199219 C 259.726562 290.765625 259.726562 290.296875 259.726562 289.863281 C 263.210938 290.046875 265.886719 291.851562 268.6875 293.78125 C 267.070312 291.136719 264.082031 289.238281 261.28125 288.117188 C 260.597656 287.808594 259.757812 287.652344 259.167969 287.214844 C 258.824219 286.71875 258.546875 286.160156 258.234375 285.628906 C 257.457031 284.261719 256.179688 283.078125 255 282.082031 C 253.660156 281.617188 252.292969 281.117188 250.921875 280.933594 L 250.828125 280.933594 L 250.890625 280.960938 L 250.953125 280.992188 C 253.628906 282.332031 256.398438 284.324219 257.828125 287.03125 C 259.105469 289.425781 258.980469 292.289062 257.644531 294.652344 C 255.746094 298.105469 252.105469 300.625 248.714844 302.523438 C 250.207031 302.121094 251.699219 301.589844 253.132812 301.0625 C 254.28125 300.59375 255.03125 299.632812 256.054688 299.007812 C 258.824219 298.574219 261.4375 299.507812 263.648438 301.09375 C 264.457031 301.714844 265.046875 302.429688 265.824219 303.148438 L 266.167969 302.960938 C 267.628906 301.871094 268.9375 300.625 269.902344 299.070312 C 269 299.132812 268.90625 297.671875 268.4375 297.140625 Z M 268.4375 297.140625 " fill-opacity="1" fill-rule="nonzero"/><path fill="#ffe8a9" d="M 209.851562 302.460938 C 201.015625 302.492188 192.085938 300.90625 183.871094 297.671875 C 183.125 297.453125 182.285156 296.738281 181.570312 297.234375 C 178.988281 298.574219 176.4375 300.097656 173.882812 301.496094 C 175.597656 302.308594 177.554688 302.742188 179.390625 303.242188 C 184.527344 304.640625 189.96875 305.324219 195.257812 305.761719 C 197.21875 305.886719 199.179688 305.824219 201.140625 305.605469 C 208.203125 305.136719 215.078125 304.609375 222.015625 303.148438 C 223.199219 302.898438 224.382812 302.710938 225.503906 302.277344 C 220.214844 302.246094 215.109375 302.804688 209.851562 302.460938 Z M 209.851562 302.460938 " fill-opacity="1" fill-rule="nonzero"/></svg>